<svg xmlns="http://www.w3.org/2000/svg" class="chart" id="svg" width="2040" height="472"><defs><linearGradient id="l_gradient" x1="0%" y1="0%" x2="100%" y2="0%" spreadMethod="pad"><stop offset="0%" stop-color="#39b1d5" stop-opacity="0"/><stop offset="100%" stop-color="#39b1d5" stop-opacity="1"/></linearGradient><linearGradient id="a_gradient" x1="0%" y1="0%" x2="100%" y2="0%" spreadMethod="pad"><stop offset="0%" stop-color="#8d065e" stop-opacity="0"/><stop offset="100%" stop-color="#8d065e" stop-opacity="1"/></linearGradient><linearGradient id="c_gradient" x1="0%" y1="0%" x2="100%" y2="0%" spreadMethod="pad"><stop offset="0%" stop-color="#de49a8" stop-opacity="0"/><stop offset="100%" stop-color="#de49a8" stop-opacity="1"/></linearGradient></defs><rect width="100%" height="100%" fill="white"/><text x="20" y="60" text-anchor="start" font-family="Inter, Helvetica, sans-serif" font-weight="800" font-size="40" fill="black">British Monarchy</text><text x="20" y="100" text-anchor="start" font-family="Inter, Helvetica, sans-serif" font-weight="300" font-size="30" fill="black">1600⁠–⁠2100</text><text x="20" y="432" text-anchor="start" font-family="Inter, Helvetica, sans-serif" font-weight="500" font-size="12" fill="black">Data source: https://en.wikipedia.org/wiki/List_of_British_monarchs</text><text x="20" y="452" text-anchor="start" font-family="Inter, Helvetica, sans-serif" font-weight="500" font-size="12" fill="black">Author: Tobias Bernard (tobiasbernard.com)</text><path d="M20,200L20,402" stroke="#eee" stroke-width="2" fill="none"/><path d="M60,200L60,402" stroke="#eee" stroke-width="2" fill="none"/><text x="60" y="190" text-anchor="middle" font-family="Inter, Helvetica, sans-serif" font-weight="600" font-size="12" fill="#aaa">1610</text><path d="M100,200L100,402" stroke="#eee" stroke-width="2" fill="none"/><text x="100" y="190" text-anchor="middle" font-family="Inter, Helvetica, sans-serif" font-weight="600" font-size="12" fill="#aaa">1620</text><path d="M140,200L140,402" stroke="#eee" stroke-width="2" fill="none"/><text x="140" y="190" text-anchor="middle" font-family="Inter, Helvetica, sans-serif" font-weight="600" font-size="12" fill="#aaa">1630</text><path d="M180,200L180,402" stroke="#eee" stroke-width="2" fill="none"/><text x="180" y="190" text-anchor="middle" font-family="Inter, Helvetica, sans-serif" font-weight="600" font-size="12" fill="#aaa">1640</text><path d="M220,200L220,402" stroke="#eee" stroke-width="2" fill="none"/><path d="M260,200L260,402" stroke="#eee" stroke-width="2" fill="none"/><text x="260" y="190" text-anchor="middle" font-family="Inter, Helvetica, sans-serif" font-weight="600" font-size="12" fill="#aaa">1660</text><path d="M300,200L300,402" stroke="#eee" stroke-width="2" fill="none"/><text x="300" y="190" text-anchor="middle" font-family="Inter, Helvetica, sans-serif" font-weight="600" font-size="12" fill="#aaa">1670</text><path d="M340,200L340,402" stroke="#eee" stroke-width="2" fill="none"/><text x="340" y="190" text-anchor="middle" font-family="Inter, Helvetica, sans-serif" font-weight="600" font-size="12" fill="#aaa">1680</text><path d="M380,200L380,402" stroke="#eee" stroke-width="2" fill="none"/><text x="380" y="190" text-anchor="middle" font-family="Inter, Helvetica, sans-serif" font-weight="600" font-size="12" fill="#aaa">1690</text><path d="M420,200L420,402" stroke="#eee" stroke-width="2" fill="none"/><path d="M460,200L460,402" stroke="#eee" stroke-width="2" fill="none"/><text x="460" y="190" text-anchor="middle" font-family="Inter, Helvetica, sans-serif" font-weight="600" font-size="12" fill="#aaa">1710</text><path d="M500,200L500,402" stroke="#eee" stroke-width="2" fill="none"/><text x="500" y="190" text-anchor="middle" font-family="Inter, Helvetica, sans-serif" font-weight="600" font-size="12" fill="#aaa">1720</text><path d="M540,200L540,402" stroke="#eee" stroke-width="2" fill="none"/><text x="540" y="190" text-anchor="middle" font-family="Inter, Helvetica, sans-serif" font-weight="600" font-size="12" fill="#aaa">1730</text><path d="M580,200L580,402" stroke="#eee" stroke-width="2" fill="none"/><text x="580" y="190" text-anchor="middle" font-family="Inter, Helvetica, sans-serif" font-weight="600" font-size="12" fill="#aaa">1740</text><path d="M620,200L620,402" stroke="#eee" stroke-width="2" fill="none"/><path d="M660,200L660,402" stroke="#eee" stroke-width="2" fill="none"/><text x="660" y="190" text-anchor="middle" font-family="Inter, Helvetica, sans-serif" font-weight="600" font-size="12" fill="#aaa">1760</text><path d="M700,200L700,402" stroke="#eee" stroke-width="2" fill="none"/><text x="700" y="190" text-anchor="middle" font-family="Inter, Helvetica, sans-serif" font-weight="600" font-size="12" fill="#aaa">1770</text><path d="M740,200L740,402" stroke="#eee" stroke-width="2" fill="none"/><text x="740" y="190" text-anchor="middle" font-family="Inter, Helvetica, sans-serif" font-weight="600" font-size="12" fill="#aaa">1780</text><path d="M780,200L780,402" stroke="#eee" stroke-width="2" fill="none"/><text x="780" y="190" text-anchor="middle" font-family="Inter, Helvetica, sans-serif" font-weight="600" font-size="12" fill="#aaa">1790</text><path d="M820,200L820,402" stroke="#eee" stroke-width="2" fill="none"/><path d="M860,200L860,402" stroke="#eee" stroke-width="2" fill="none"/><text x="860" y="190" text-anchor="middle" font-family="Inter, Helvetica, sans-serif" font-weight="600" font-size="12" fill="#aaa">1810</text><path d="M900,200L900,402" stroke="#eee" stroke-width="2" fill="none"/><text x="900" y="190" text-anchor="middle" font-family="Inter, Helvetica, sans-serif" font-weight="600" font-size="12" fill="#aaa">1820</text><path d="M940,200L940,402" stroke="#eee" stroke-width="2" fill="none"/><text x="940" y="190" text-anchor="middle" font-family="Inter, Helvetica, sans-serif" font-weight="600" font-size="12" fill="#aaa">1830</text><path d="M980,200L980,402" stroke="#eee" stroke-width="2" fill="none"/><text x="980" y="190" text-anchor="middle" font-family="Inter, Helvetica, sans-serif" font-weight="600" font-size="12" fill="#aaa">1840</text><path d="M1020,200L1020,402" stroke="#eee" stroke-width="2" fill="none"/><path d="M1060,200L1060,402" stroke="#eee" stroke-width="2" fill="none"/><text x="1060" y="190" text-anchor="middle" font-family="Inter, Helvetica, sans-serif" font-weight="600" font-size="12" fill="#aaa">1860</text><path d="M1100,200L1100,402" stroke="#eee" stroke-width="2" fill="none"/><text x="1100" y="190" text-anchor="middle" font-family="Inter, Helvetica, sans-serif" font-weight="600" font-size="12" fill="#aaa">1870</text><path d="M1140,200L1140,402" stroke="#eee" stroke-width="2" fill="none"/><text x="1140" y="190" text-anchor="middle" font-family="Inter, Helvetica, sans-serif" font-weight="600" font-size="12" fill="#aaa">1880</text><path d="M1180,200L1180,402" stroke="#eee" stroke-width="2" fill="none"/><text x="1180" y="190" text-anchor="middle" font-family="Inter, Helvetica, sans-serif" font-weight="600" font-size="12" fill="#aaa">1890</text><path d="M1220,200L1220,402" stroke="#eee" stroke-width="2" fill="none"/><path d="M1260,200L1260,402" stroke="#eee" stroke-width="2" fill="none"/><text x="1260" y="190" text-anchor="middle" font-family="Inter, Helvetica, sans-serif" font-weight="600" font-size="12" fill="#aaa">1910</text><path d="M1300,200L1300,402" stroke="#eee" stroke-width="2" fill="none"/><text x="1300" y="190" text-anchor="middle" font-family="Inter, Helvetica, sans-serif" font-weight="600" font-size="12" fill="#aaa">1920</text><path d="M1340,200L1340,402" stroke="#eee" stroke-width="2" fill="none"/><text x="1340" y="190" text-anchor="middle" font-family="Inter, Helvetica, sans-serif" font-weight="600" font-size="12" fill="#aaa">1930</text><path d="M1380,200L1380,402" stroke="#eee" stroke-width="2" fill="none"/><text x="1380" y="190" text-anchor="middle" font-family="Inter, Helvetica, sans-serif" font-weight="600" font-size="12" fill="#aaa">1940</text><path d="M1420,200L1420,402" stroke="#eee" stroke-width="2" fill="none"/><path d="M1460,200L1460,402" stroke="#eee" stroke-width="2" fill="none"/><text x="1460" y="190" text-anchor="middle" font-family="Inter, Helvetica, sans-serif" font-weight="600" font-size="12" fill="#aaa">1960</text><path d="M1500,200L1500,402" stroke="#eee" stroke-width="2" fill="none"/><text x="1500" y="190" text-anchor="middle" font-family="Inter, Helvetica, sans-serif" font-weight="600" font-size="12" fill="#aaa">1970</text><path d="M1540,200L1540,402" stroke="#eee" stroke-width="2" fill="none"/><text x="1540" y="190" text-anchor="middle" font-family="Inter, Helvetica, sans-serif" font-weight="600" font-size="12" fill="#aaa">1980</text><path d="M1580,200L1580,402" stroke="#eee" stroke-width="2" fill="none"/><text x="1580" y="190" text-anchor="middle" font-family="Inter, Helvetica, sans-serif" font-weight="600" font-size="12" fill="#aaa">1990</text><path d="M1620,200L1620,402" stroke="#eee" stroke-width="2" fill="none"/><path d="M1660,200L1660,402" stroke="#eee" stroke-width="2" fill="none"/><text x="1660" y="190" text-anchor="middle" font-family="Inter, Helvetica, sans-serif" font-weight="600" font-size="12" fill="#aaa">2010</text><path d="M1700,200L1700,402" stroke="#eee" stroke-width="2" fill="none"/><text x="1700" y="190" text-anchor="middle" font-family="Inter, Helvetica, sans-serif" font-weight="600" font-size="12" fill="#aaa">2020</text><path d="M1740,200L1740,402" stroke="#eee" stroke-width="2" fill="none"/><text x="1740" y="190" text-anchor="middle" font-family="Inter, Helvetica, sans-serif" font-weight="600" font-size="12" fill="#aaa">2030</text><path d="M1780,200L1780,402" stroke="#eee" stroke-width="2" fill="none"/><text x="1780" y="190" text-anchor="middle" font-family="Inter, Helvetica, sans-serif" font-weight="600" font-size="12" fill="#aaa">2040</text><path d="M1820,200L1820,402" stroke="#eee" stroke-width="2" fill="none"/><path d="M1860,200L1860,402" stroke="#eee" stroke-width="2" fill="none"/><text x="1860" y="190" text-anchor="middle" font-family="Inter, Helvetica, sans-serif" font-weight="600" font-size="12" fill="#aaa">2060</text><path d="M1900,200L1900,402" stroke="#eee" stroke-width="2" fill="none"/><text x="1900" y="190" text-anchor="middle" font-family="Inter, Helvetica, sans-serif" font-weight="600" font-size="12" fill="#aaa">2070</text><path d="M1940,200L1940,402" stroke="#eee" stroke-width="2" fill="none"/><text x="1940" y="190" text-anchor="middle" font-family="Inter, Helvetica, sans-serif" font-weight="600" font-size="12" fill="#aaa">2080</text><path d="M1980,200L1980,402" stroke="#eee" stroke-width="2" fill="none"/><text x="1980" y="190" text-anchor="middle" font-family="Inter, Helvetica, sans-serif" font-weight="600" font-size="12" fill="#aaa">2090</text><path d="M2020,200L2020,402" stroke="#eee" stroke-width="2" fill="none"/><path d="M20,200L20,402" stroke="#ccc" stroke-width="2" fill="none"/><text x="20" y="190" text-anchor="middle" font-family="Inter, Helvetica, sans-serif" font-weight="600" font-size="12" fill="#666">1600</text><path d="M220,200L220,402" stroke="#ccc" stroke-width="2" fill="none"/><text x="220" y="190" text-anchor="middle" font-family="Inter, Helvetica, sans-serif" font-weight="600" font-size="12" fill="#666">1650</text><path d="M420,200L420,402" stroke="#ccc" stroke-width="2" fill="none"/><text x="420" y="190" text-anchor="middle" font-family="Inter, Helvetica, sans-serif" font-weight="600" font-size="12" fill="#666">1700</text><path d="M620,200L620,402" stroke="#ccc" stroke-width="2" fill="none"/><text x="620" y="190" text-anchor="middle" font-family="Inter, Helvetica, sans-serif" font-weight="600" font-size="12" fill="#666">1750</text><path d="M820,200L820,402" stroke="#ccc" stroke-width="2" fill="none"/><text x="820" y="190" text-anchor="middle" font-family="Inter, Helvetica, sans-serif" font-weight="600" font-size="12" fill="#666">1800</text><path d="M1020,200L1020,402" stroke="#ccc" stroke-width="2" fill="none"/><text x="1020" y="190" text-anchor="middle" font-family="Inter, Helvetica, sans-serif" font-weight="600" font-size="12" fill="#666">1850</text><path d="M1220,200L1220,402" stroke="#ccc" stroke-width="2" fill="none"/><text x="1220" y="190" text-anchor="middle" font-family="Inter, Helvetica, sans-serif" font-weight="600" font-size="12" fill="#666">1900</text><path d="M1420,200L1420,402" stroke="#ccc" stroke-width="2" fill="none"/><text x="1420" y="190" text-anchor="middle" font-family="Inter, Helvetica, sans-serif" font-weight="600" font-size="12" fill="#666">1950</text><path d="M1620,200L1620,402" stroke="#ccc" stroke-width="2" fill="none"/><text x="1620" y="190" text-anchor="middle" font-family="Inter, Helvetica, sans-serif" font-weight="600" font-size="12" fill="#666">2000</text><path d="M1820,200L1820,402" stroke="#ccc" stroke-width="2" fill="none"/><text x="1820" y="190" text-anchor="middle" font-family="Inter, Helvetica, sans-serif" font-weight="600" font-size="12" fill="#666">2050</text><path d="M2020,200L2020,402" stroke="#ccc" stroke-width="2" fill="none"/><text x="2020" y="190" text-anchor="middle" font-family="Inter, Helvetica, sans-serif" font-weight="600" font-size="12" fill="#666">2100</text><rect x="449.53888888888923" y="160" width="28.91666666666606" height="3" fill="#c00465"/><rect x="449.53888888888923" y="160" width="28.91666666666606" height="242" opacity="0.06" fill="#c00465"/><text x="449.53888888888923" y="133" text-anchor="start" font-family="Inter, Helvetica, sans-serif" font-weight="700" font-size="18px" fill="#c00465">Stuart</text><rect x="478.4555555555553" y="160" width="746.0944444444449" height="3" fill="#47c00a"/><rect x="478.4555555555553" y="160" width="746.0944444444449" height="242" opacity="0.06" fill="#47c00a"/><text x="478.4555555555553" y="155" text-anchor="start" font-family="Inter, Helvetica, sans-serif" font-weight="700" font-size="18px" fill="#47c00a">Hanover</text><rect x="1224.5500000000002" y="160" width="37.04444444444471" height="3" fill="#bc0b0b"/><rect x="1224.5500000000002" y="160" width="37.04444444444471" height="242" opacity="0.06" fill="#bc0b0b"/><text x="1224.5500000000002" y="133" text-anchor="start" font-family="Inter, Helvetica, sans-serif" font-weight="700" font-size="18px" fill="#bc0b0b">Saxe-Coburg and Gotha</text><rect x="1261.594444444445" y="160" width="439.76111111111095" height="3" fill="#cb8100"/><rect x="1261.594444444445" y="160" width="439.76111111111095" height="242" opacity="0.06" fill="#cb8100"/><text x="1261.594444444445" y="155" text-anchor="start" font-family="Inter, Helvetica, sans-serif" font-weight="700" font-size="18px" fill="#cb8100">Windsor</text><text x="273.6777777777779" y="216" text-anchor="end" font-family="Inter, Helvetica, sans-serif" font-weight="500" font-size="12" fill="black">Anne</text><rect x="280.6777777777779" y="210" width="197.77777777777737" height="6" style="fill: rgb(57, 177, 213);" transform=""/><rect x="449.53888888888923" y="210" width="28.91666666666606" height="6" style="fill: rgb(141, 6, 94);" transform=""/><text x="254.8388888888885" y="232" text-anchor="end" font-family="Inter, Helvetica, sans-serif" font-weight="500" font-size="12" fill="black">George</text><rect x="261.8388888888885" y="226" width="268.1166666666668" height="6" style="fill: rgb(57, 177, 213);" transform=""/><rect x="478.4555555555553" y="226" width="51.5" height="6" style="fill: rgb(141, 6, 94);" transform=""/><text x="348.3888888888887" y="248" text-anchor="end" font-family="Inter, Helvetica, sans-serif" font-weight="500" font-size="12" fill="black">George II</text><rect x="355.3888888888887" y="242" width="307.94444444444434" height="6" style="fill: rgb(57, 177, 213);" transform=""/><rect x="529.9555555555553" y="242" width="133.37777777777774" height="6" style="fill: rgb(141, 6, 94);" transform=""/><text x="566.8777777777777" y="264" text-anchor="end" font-family="Inter, Helvetica, sans-serif" font-weight="500" font-size="12" fill="black">George III</text><rect x="573.8777777777777" y="258" width="326.75" height="6" style="fill: rgb(57, 177, 213);" transform=""/><rect x="663.333333333333" y="258" width="237.2944444444447" height="6" style="fill: rgb(141, 6, 94);" transform=""/><text x="663.5777777777776" y="280" text-anchor="end" font-family="Inter, Helvetica, sans-serif" font-weight="500" font-size="12" fill="black">George IV</text><rect x="670.5777777777776" y="274" width="271.5444444444447" height="6" style="fill: rgb(57, 177, 213);" transform=""/><rect x="900.6277777777777" y="274" width="41.494444444444525" height="6" style="fill: rgb(141, 6, 94);" transform=""/><rect x="864.666666666667" y="274" width="35.96111111111077" height="6" style="fill: rgb(222, 73, 168);" transform=""/><text x="675.6777777777779" y="296" text-anchor="end" font-family="Inter, Helvetica, sans-serif" font-weight="500" font-size="12" fill="black">William IV</text><rect x="682.6777777777779" y="290" width="287.37777777777774" height="6" style="fill: rgb(57, 177, 213);" transform=""/><rect x="942.1222222222223" y="290" width="27.933333333333394" height="6" style="fill: rgb(141, 6, 94);" transform=""/><text x="890.7944444444447" y="312" text-anchor="end" font-family="Inter, Helvetica, sans-serif" font-weight="500" font-size="12" fill="black">Victoria</text><rect x="897.7944444444447" y="306" width="326.7555555555555" height="6" style="fill: rgb(57, 177, 213);" transform=""/><rect x="970.0555555555557" y="306" width="254.49444444444453" height="6" style="fill: rgb(141, 6, 94);" transform=""/><text x="980.4611111111108" y="328" text-anchor="end" font-family="Inter, Helvetica, sans-serif" font-weight="500" font-size="12" fill="black">Edward VII</text><rect x="987.4611111111108" y="322" width="274.1333333333341" height="6" style="fill: rgb(57, 177, 213);" transform=""/><rect x="1224.5500000000002" y="322" width="37.04444444444471" height="6" style="fill: rgb(141, 6, 94);" transform=""/><text x="1074.8666666666668" y="344" text-anchor="end" font-family="Inter, Helvetica, sans-serif" font-weight="500" font-size="12" fill="black">George V</text><rect x="1081.8666666666668" y="338" width="282.6611111111106" height="6" style="fill: rgb(57, 177, 213);" transform=""/><rect x="1261.594444444445" y="338" width="102.93333333333248" height="6" style="fill: rgb(141, 6, 94);" transform=""/><text x="1191.0888888888885" y="360" text-anchor="end" font-family="Inter, Helvetica, sans-serif" font-weight="500" font-size="12" fill="black">Edward VIII</text><rect x="1198.0888888888885" y="354" width="311.75" height="6" style="fill: rgb(57, 177, 213);" transform=""/><rect x="1364.5277777777774" y="354" width="3.261111111111859" height="6" style="fill: rgb(141, 6, 94);" transform=""/><text x="1196.822222222222" y="376" text-anchor="end" font-family="Inter, Helvetica, sans-serif" font-weight="500" font-size="12" fill="black">George VI</text><rect x="1203.822222222222" y="370" width="224.85555555555584" height="6" style="fill: rgb(57, 177, 213);" transform=""/><rect x="1367.7888888888892" y="370" width="60.88888888888869" height="6" style="fill: rgb(141, 6, 94);" transform=""/><text x="1318.4555555555553" y="392" text-anchor="end" font-family="Inter, Helvetica, sans-serif" font-weight="500" font-size="12" fill="black">Elizabeth II</text><rect x="1325.4555555555553" y="386" width="375.90000000000055" height="6" style="fill: rgb(57, 177, 213);" transform=""/><rect x="1428.677777777778" y="386" width="272.6777777777779" height="6" style="fill: rgb(141, 6, 94);" transform=""/></svg>