<svg xmlns="http://www.w3.org/2000/svg" class="chart" id="svg" width="2040" height="648"><defs><linearGradient id="l_gradient" x1="0%" y1="0%" x2="100%" y2="0%" spreadMethod="pad"><stop offset="0%" stop-color="#39b1d5" stop-opacity="0"/><stop offset="100%" stop-color="#39b1d5" stop-opacity="1"/></linearGradient><linearGradient id="a_gradient" x1="0%" y1="0%" x2="100%" y2="0%" spreadMethod="pad"><stop offset="0%" stop-color="#8d065e" stop-opacity="0"/><stop offset="100%" stop-color="#8d065e" stop-opacity="1"/></linearGradient><linearGradient id="c_gradient" x1="0%" y1="0%" x2="100%" y2="0%" spreadMethod="pad"><stop offset="0%" stop-color="#de49a8" stop-opacity="0"/><stop offset="100%" stop-color="#de49a8" stop-opacity="1"/></linearGradient></defs><rect width="100%" height="100%" fill="white"/><text x="20" y="60" text-anchor="start" font-family="Inter, Helvetica, sans-serif" font-weight="800" font-size="40" fill="black">Kings of Hungary</text><text x="20" y="100" text-anchor="start" font-family="Inter, Helvetica, sans-serif" font-weight="300" font-size="30" fill="black">900⁠–⁠1400</text><text x="20" y="608" text-anchor="start" font-family="Inter, Helvetica, sans-serif" font-weight="500" font-size="12" fill="black">Data source: https://en.wikipedia.org/wiki/List_of_Hungarian_monarchs</text><text x="20" y="628" text-anchor="start" font-family="Inter, Helvetica, sans-serif" font-weight="500" font-size="12" fill="black">Author: Tobias Bernard (tobiasbernard.com)</text><path d="M20,200L20,578" stroke="#eee" stroke-width="2" fill="none"/><path d="M60,200L60,578" stroke="#eee" stroke-width="2" fill="none"/><text x="60" y="190" text-anchor="middle" font-family="Inter, Helvetica, sans-serif" font-weight="600" font-size="12" fill="#aaa">910</text><path d="M100,200L100,578" stroke="#eee" stroke-width="2" fill="none"/><text x="100" y="190" text-anchor="middle" font-family="Inter, Helvetica, sans-serif" font-weight="600" font-size="12" fill="#aaa">920</text><path d="M140,200L140,578" stroke="#eee" stroke-width="2" fill="none"/><text x="140" y="190" text-anchor="middle" font-family="Inter, Helvetica, sans-serif" font-weight="600" font-size="12" fill="#aaa">930</text><path d="M180,200L180,578" stroke="#eee" stroke-width="2" fill="none"/><text x="180" y="190" text-anchor="middle" font-family="Inter, Helvetica, sans-serif" font-weight="600" font-size="12" fill="#aaa">940</text><path d="M220,200L220,578" stroke="#eee" stroke-width="2" fill="none"/><path d="M260,200L260,578" stroke="#eee" stroke-width="2" fill="none"/><text x="260" y="190" text-anchor="middle" font-family="Inter, Helvetica, sans-serif" font-weight="600" font-size="12" fill="#aaa">960</text><path d="M300,200L300,578" stroke="#eee" stroke-width="2" fill="none"/><text x="300" y="190" text-anchor="middle" font-family="Inter, Helvetica, sans-serif" font-weight="600" font-size="12" fill="#aaa">970</text><path d="M340,200L340,578" stroke="#eee" stroke-width="2" fill="none"/><text x="340" y="190" text-anchor="middle" font-family="Inter, Helvetica, sans-serif" font-weight="600" font-size="12" fill="#aaa">980</text><path d="M380,200L380,578" stroke="#eee" stroke-width="2" fill="none"/><text x="380" y="190" text-anchor="middle" font-family="Inter, Helvetica, sans-serif" font-weight="600" font-size="12" fill="#aaa">990</text><path d="M420,200L420,578" stroke="#eee" stroke-width="2" fill="none"/><path d="M460,200L460,578" stroke="#eee" stroke-width="2" fill="none"/><text x="460" y="190" text-anchor="middle" font-family="Inter, Helvetica, sans-serif" font-weight="600" font-size="12" fill="#aaa">1010</text><path d="M500,200L500,578" stroke="#eee" stroke-width="2" fill="none"/><text x="500" y="190" text-anchor="middle" font-family="Inter, Helvetica, sans-serif" font-weight="600" font-size="12" fill="#aaa">1020</text><path d="M540,200L540,578" stroke="#eee" stroke-width="2" fill="none"/><text x="540" y="190" text-anchor="middle" font-family="Inter, Helvetica, sans-serif" font-weight="600" font-size="12" fill="#aaa">1030</text><path d="M580,200L580,578" stroke="#eee" stroke-width="2" fill="none"/><text x="580" y="190" text-anchor="middle" font-family="Inter, Helvetica, sans-serif" font-weight="600" font-size="12" fill="#aaa">1040</text><path d="M620,200L620,578" stroke="#eee" stroke-width="2" fill="none"/><path d="M660,200L660,578" stroke="#eee" stroke-width="2" fill="none"/><text x="660" y="190" text-anchor="middle" font-family="Inter, Helvetica, sans-serif" font-weight="600" font-size="12" fill="#aaa">1060</text><path d="M700,200L700,578" stroke="#eee" stroke-width="2" fill="none"/><text x="700" y="190" text-anchor="middle" font-family="Inter, Helvetica, sans-serif" font-weight="600" font-size="12" fill="#aaa">1070</text><path d="M740,200L740,578" stroke="#eee" stroke-width="2" fill="none"/><text x="740" y="190" text-anchor="middle" font-family="Inter, Helvetica, sans-serif" font-weight="600" font-size="12" fill="#aaa">1080</text><path d="M780,200L780,578" stroke="#eee" stroke-width="2" fill="none"/><text x="780" y="190" text-anchor="middle" font-family="Inter, Helvetica, sans-serif" font-weight="600" font-size="12" fill="#aaa">1090</text><path d="M820,200L820,578" stroke="#eee" stroke-width="2" fill="none"/><path d="M860,200L860,578" stroke="#eee" stroke-width="2" fill="none"/><text x="860" y="190" text-anchor="middle" font-family="Inter, Helvetica, sans-serif" font-weight="600" font-size="12" fill="#aaa">1110</text><path d="M900,200L900,578" stroke="#eee" stroke-width="2" fill="none"/><text x="900" y="190" text-anchor="middle" font-family="Inter, Helvetica, sans-serif" font-weight="600" font-size="12" fill="#aaa">1120</text><path d="M940,200L940,578" stroke="#eee" stroke-width="2" fill="none"/><text x="940" y="190" text-anchor="middle" font-family="Inter, Helvetica, sans-serif" font-weight="600" font-size="12" fill="#aaa">1130</text><path d="M980,200L980,578" stroke="#eee" stroke-width="2" fill="none"/><text x="980" y="190" text-anchor="middle" font-family="Inter, Helvetica, sans-serif" font-weight="600" font-size="12" fill="#aaa">1140</text><path d="M1020,200L1020,578" stroke="#eee" stroke-width="2" fill="none"/><path d="M1060,200L1060,578" stroke="#eee" stroke-width="2" fill="none"/><text x="1060" y="190" text-anchor="middle" font-family="Inter, Helvetica, sans-serif" font-weight="600" font-size="12" fill="#aaa">1160</text><path d="M1100,200L1100,578" stroke="#eee" stroke-width="2" fill="none"/><text x="1100" y="190" text-anchor="middle" font-family="Inter, Helvetica, sans-serif" font-weight="600" font-size="12" fill="#aaa">1170</text><path d="M1140,200L1140,578" stroke="#eee" stroke-width="2" fill="none"/><text x="1140" y="190" text-anchor="middle" font-family="Inter, Helvetica, sans-serif" font-weight="600" font-size="12" fill="#aaa">1180</text><path d="M1180,200L1180,578" stroke="#eee" stroke-width="2" fill="none"/><text x="1180" y="190" text-anchor="middle" font-family="Inter, Helvetica, sans-serif" font-weight="600" font-size="12" fill="#aaa">1190</text><path d="M1220,200L1220,578" stroke="#eee" stroke-width="2" fill="none"/><path d="M1260,200L1260,578" stroke="#eee" stroke-width="2" fill="none"/><text x="1260" y="190" text-anchor="middle" font-family="Inter, Helvetica, sans-serif" font-weight="600" font-size="12" fill="#aaa">1210</text><path d="M1300,200L1300,578" stroke="#eee" stroke-width="2" fill="none"/><text x="1300" y="190" text-anchor="middle" font-family="Inter, Helvetica, sans-serif" font-weight="600" font-size="12" fill="#aaa">1220</text><path d="M1340,200L1340,578" stroke="#eee" stroke-width="2" fill="none"/><text x="1340" y="190" text-anchor="middle" font-family="Inter, Helvetica, sans-serif" font-weight="600" font-size="12" fill="#aaa">1230</text><path d="M1380,200L1380,578" stroke="#eee" stroke-width="2" fill="none"/><text x="1380" y="190" text-anchor="middle" font-family="Inter, Helvetica, sans-serif" font-weight="600" font-size="12" fill="#aaa">1240</text><path d="M1420,200L1420,578" stroke="#eee" stroke-width="2" fill="none"/><path d="M1460,200L1460,578" stroke="#eee" stroke-width="2" fill="none"/><text x="1460" y="190" text-anchor="middle" font-family="Inter, Helvetica, sans-serif" font-weight="600" font-size="12" fill="#aaa">1260</text><path d="M1500,200L1500,578" stroke="#eee" stroke-width="2" fill="none"/><text x="1500" y="190" text-anchor="middle" font-family="Inter, Helvetica, sans-serif" font-weight="600" font-size="12" fill="#aaa">1270</text><path d="M1540,200L1540,578" stroke="#eee" stroke-width="2" fill="none"/><text x="1540" y="190" text-anchor="middle" font-family="Inter, Helvetica, sans-serif" font-weight="600" font-size="12" fill="#aaa">1280</text><path d="M1580,200L1580,578" stroke="#eee" stroke-width="2" fill="none"/><text x="1580" y="190" text-anchor="middle" font-family="Inter, Helvetica, sans-serif" font-weight="600" font-size="12" fill="#aaa">1290</text><path d="M1620,200L1620,578" stroke="#eee" stroke-width="2" fill="none"/><path d="M1660,200L1660,578" stroke="#eee" stroke-width="2" fill="none"/><text x="1660" y="190" text-anchor="middle" font-family="Inter, Helvetica, sans-serif" font-weight="600" font-size="12" fill="#aaa">1310</text><path d="M1700,200L1700,578" stroke="#eee" stroke-width="2" fill="none"/><text x="1700" y="190" text-anchor="middle" font-family="Inter, Helvetica, sans-serif" font-weight="600" font-size="12" fill="#aaa">1320</text><path d="M1740,200L1740,578" stroke="#eee" stroke-width="2" fill="none"/><text x="1740" y="190" text-anchor="middle" font-family="Inter, Helvetica, sans-serif" font-weight="600" font-size="12" fill="#aaa">1330</text><path d="M1780,200L1780,578" stroke="#eee" stroke-width="2" fill="none"/><text x="1780" y="190" text-anchor="middle" font-family="Inter, Helvetica, sans-serif" font-weight="600" font-size="12" fill="#aaa">1340</text><path d="M1820,200L1820,578" stroke="#eee" stroke-width="2" fill="none"/><path d="M1860,200L1860,578" stroke="#eee" stroke-width="2" fill="none"/><text x="1860" y="190" text-anchor="middle" font-family="Inter, Helvetica, sans-serif" font-weight="600" font-size="12" fill="#aaa">1360</text><path d="M1900,200L1900,578" stroke="#eee" stroke-width="2" fill="none"/><text x="1900" y="190" text-anchor="middle" font-family="Inter, Helvetica, sans-serif" font-weight="600" font-size="12" fill="#aaa">1370</text><path d="M1940,200L1940,578" stroke="#eee" stroke-width="2" fill="none"/><text x="1940" y="190" text-anchor="middle" font-family="Inter, Helvetica, sans-serif" font-weight="600" font-size="12" fill="#aaa">1380</text><path d="M1980,200L1980,578" stroke="#eee" stroke-width="2" fill="none"/><text x="1980" y="190" text-anchor="middle" font-family="Inter, Helvetica, sans-serif" font-weight="600" font-size="12" fill="#aaa">1390</text><path d="M2020,200L2020,578" stroke="#eee" stroke-width="2" fill="none"/><path d="M20,200L20,578" stroke="#ccc" stroke-width="2" fill="none"/><text x="20" y="190" text-anchor="middle" font-family="Inter, Helvetica, sans-serif" font-weight="600" font-size="12" fill="#666">900</text><path d="M220,200L220,578" stroke="#ccc" stroke-width="2" fill="none"/><text x="220" y="190" text-anchor="middle" font-family="Inter, Helvetica, sans-serif" font-weight="600" font-size="12" fill="#666">950</text><path d="M420,200L420,578" stroke="#ccc" stroke-width="2" fill="none"/><text x="420" y="190" text-anchor="middle" font-family="Inter, Helvetica, sans-serif" font-weight="600" font-size="12" fill="#666">1000</text><path d="M620,200L620,578" stroke="#ccc" stroke-width="2" fill="none"/><text x="620" y="190" text-anchor="middle" font-family="Inter, Helvetica, sans-serif" font-weight="600" font-size="12" fill="#666">1050</text><path d="M820,200L820,578" stroke="#ccc" stroke-width="2" fill="none"/><text x="820" y="190" text-anchor="middle" font-family="Inter, Helvetica, sans-serif" font-weight="600" font-size="12" fill="#666">1100</text><path d="M1020,200L1020,578" stroke="#ccc" stroke-width="2" fill="none"/><text x="1020" y="190" text-anchor="middle" font-family="Inter, Helvetica, sans-serif" font-weight="600" font-size="12" fill="#666">1150</text><path d="M1220,200L1220,578" stroke="#ccc" stroke-width="2" fill="none"/><text x="1220" y="190" text-anchor="middle" font-family="Inter, Helvetica, sans-serif" font-weight="600" font-size="12" fill="#666">1200</text><path d="M1420,200L1420,578" stroke="#ccc" stroke-width="2" fill="none"/><text x="1420" y="190" text-anchor="middle" font-family="Inter, Helvetica, sans-serif" font-weight="600" font-size="12" fill="#666">1250</text><path d="M1620,200L1620,578" stroke="#ccc" stroke-width="2" fill="none"/><text x="1620" y="190" text-anchor="middle" font-family="Inter, Helvetica, sans-serif" font-weight="600" font-size="12" fill="#666">1300</text><path d="M1820,200L1820,578" stroke="#ccc" stroke-width="2" fill="none"/><text x="1820" y="190" text-anchor="middle" font-family="Inter, Helvetica, sans-serif" font-weight="600" font-size="12" fill="#666">1350</text><path d="M2020,200L2020,578" stroke="#ccc" stroke-width="2" fill="none"/><text x="2020" y="190" text-anchor="middle" font-family="Inter, Helvetica, sans-serif" font-weight="600" font-size="12" fill="#666">1400</text><rect x="423.94444444444434" y="160" width="1200.5166666666664" height="3" fill="#c00465"/><rect x="423.94444444444434" y="160" width="1200.5166666666664" height="418" opacity="0.06" fill="#c00465"/><text x="423.94444444444434" y="155" text-anchor="start" font-family="Inter, Helvetica, sans-serif" font-weight="700" font-size="18px" fill="#c00465">House of Árpád</text><text x="313.3166666666666" y="216" text-anchor="end" font-family="Inter, Helvetica, sans-serif" font-weight="500" font-size="12" fill="black">Saint Steven</text><rect x="320.3166666666666" y="210" width="3.6944444444443434" height="6" style="fill: url(&quot;#l_gradient&quot;);" transform=""/><rect x="324.01111111111095" y="210" width="250.60000000000036" height="6" style="fill: rgb(57, 177, 213);" transform=""/><rect x="423.94444444444434" y="210" width="150.66666666666697" height="6" style="fill: rgb(141, 6, 94);" transform=""/><text x="457.3166666666666" y="232" text-anchor="end" font-family="Inter, Helvetica, sans-serif" font-weight="500" font-size="12" fill="black">Peter the Venetian</text><rect x="464.3166666666666" y="226" width="3.6944444444443434" height="6" style="fill: url(&quot;#l_gradient&quot;);" transform=""/><rect x="468.01111111111095" y="226" width="138.76666666666642" height="6" style="fill: rgb(57, 177, 213);" transform=""/><rect x="598.1944444444443" y="226" width="8.58333333333303" height="6" style="fill: rgb(141, 6, 94);" transform=""/><rect x="574.6111111111113" y="226" width="12.305555555555657" height="6" style="fill: rgb(222, 73, 168);" transform=""/><text x="373.3166666666666" y="248" text-anchor="end" font-family="Inter, Helvetica, sans-serif" font-weight="500" font-size="12" fill="black">Samuel</text><rect x="380.3166666666666" y="242" width="79.69444444444434" height="6" style="fill: url(&quot;#l_gradient&quot;);" transform=""/><rect x="460.01111111111095" y="242" width="138.1833333333334" height="6" style="fill: rgb(57, 177, 213);" transform=""/><rect x="586.916666666667" y="242" width="11.277777777777374" height="6" style="fill: rgb(141, 6, 94);" transform=""/><text x="473.3166666666666" y="264" text-anchor="end" font-family="Inter, Helvetica, sans-serif" font-weight="500" font-size="12" fill="black">Andrew I the White</text><rect x="480.3166666666666" y="258" width="3.6944444444443434" height="6" style="fill: url(&quot;#l_gradient&quot;);" transform=""/><rect x="484.01111111111095" y="258" width="179.72222222222263" height="6" style="fill: rgb(57, 177, 213);" transform=""/><rect x="606.916666666667" y="258" width="56.816666666666606" height="6" style="fill: rgb(141, 6, 94);" transform=""/><text x="473.3166666666666" y="280" text-anchor="end" font-family="Inter, Helvetica, sans-serif" font-weight="500" font-size="12" fill="black">Béla I the Champion</text><rect x="480.3166666666666" y="274" width="3.6944444444443434" height="6" style="fill: url(&quot;#l_gradient&quot;);" transform=""/><rect x="484.01111111111095" y="274" width="190.8611111111113" height="6" style="fill: rgb(57, 177, 213);" transform=""/><rect x="663.7333333333336" y="274" width="11.138888888888687" height="6" style="fill: rgb(141, 6, 94);" transform=""/><text x="625.3166666666666" y="296" text-anchor="end" font-family="Inter, Helvetica, sans-serif" font-weight="500" font-size="12" fill="black">Solomon</text><rect x="632.3166666666666" y="290" width="3.6944444444443434" height="6" style="fill: url(&quot;#l_gradient&quot;);" transform=""/><rect x="768.3166666666666" y="290" width="3.6944444444443434" height="6" style="fill: url(&quot;#l_gradient&quot;);" transform="translate(1540.3277777777776, 0) scale(-1,1)"/><rect x="636.011111111111" y="290" width="132.30555555555566" height="6" style="fill: rgb(57, 177, 213);" transform=""/><rect x="674.8722222222223" y="290" width="42.19999999999982" height="6" style="fill: rgb(141, 6, 94);" transform=""/><rect x="648.3166666666666" y="290" width="7.694444444444343" height="6" style="fill: url(&quot;#c_gradient&quot;);" transform=""/><rect x="656.011111111111" y="290" width="7.722222222222626" height="6" style="fill: rgb(222, 73, 168);" transform=""/><text x="573.3166666666666" y="312" text-anchor="end" font-family="Inter, Helvetica, sans-serif" font-weight="500" font-size="12" fill="black">Géza I Magnus</text><rect x="580.3166666666666" y="306" width="3.6944444444443434" height="6" style="fill: url(&quot;#l_gradient&quot;);" transform=""/><rect x="584.011111111111" y="306" width="145.48888888888905" height="6" style="fill: rgb(57, 177, 213);" transform=""/><rect x="717.0722222222221" y="306" width="12.42777777777792" height="6" style="fill: rgb(141, 6, 94);" transform=""/><text x="573.3166666666666" y="328" text-anchor="end" font-family="Inter, Helvetica, sans-serif" font-weight="500" font-size="12" fill="black">Saint Ladislaus I</text><rect x="580.3166666666666" y="322" width="3.6944444444443434" height="6" style="fill: url(&quot;#l_gradient&quot;);" transform=""/><rect x="584.011111111111" y="322" width="218.44999999999982" height="6" style="fill: rgb(57, 177, 213);" transform=""/><rect x="729.5" y="322" width="72.96111111111077" height="6" style="fill: rgb(141, 6, 94);" transform=""/><text x="693.3166666666666" y="344" text-anchor="end" font-family="Inter, Helvetica, sans-serif" font-weight="500" font-size="12" fill="black">Coloman the Learned</text><rect x="700.3166666666666" y="338" width="3.6944444444443434" height="6" style="fill: url(&quot;#l_gradient&quot;);" transform=""/><rect x="704.011111111111" y="338" width="180.6333333333332" height="6" style="fill: rgb(57, 177, 213);" transform=""/><rect x="800.3166666666666" y="338" width="3.6944444444443434" height="6" style="fill: url(&quot;#a_gradient&quot;);" transform=""/><rect x="804.011111111111" y="338" width="80.63333333333321" height="6" style="fill: rgb(141, 6, 94);" transform=""/><text x="833.3166666666666" y="360" text-anchor="end" font-family="Inter, Helvetica, sans-serif" font-weight="500" font-size="12" fill="black">Stephen II</text><rect x="840.3166666666666" y="354" width="3.6944444444443434" height="6" style="fill: url(&quot;#l_gradient&quot;);" transform=""/><rect x="844.011111111111" y="354" width="100.91666666666697" height="6" style="fill: rgb(57, 177, 213);" transform=""/><rect x="884.6444444444442" y="354" width="60.28333333333376" height="6" style="fill: rgb(141, 6, 94);" transform=""/><rect x="840.3166666666666" y="354" width="3.6944444444443434" height="6" style="fill: url(&quot;#c_gradient&quot;);" transform=""/><rect x="844.011111111111" y="354" width="40.63333333333321" height="6" style="fill: rgb(222, 73, 168);" transform=""/><text x="849.3166666666666" y="376" text-anchor="end" font-family="Inter, Helvetica, sans-serif" font-weight="500" font-size="12" fill="black">Béla II the Blind</text><rect x="856.3166666666666" y="370" width="3.6944444444443434" height="6" style="fill: url(&quot;#l_gradient&quot;);" transform=""/><rect x="860.011111111111" y="370" width="124.74444444444453" height="6" style="fill: rgb(57, 177, 213);" transform=""/><rect x="945.5333333333338" y="370" width="39.22222222222172" height="6" style="fill: rgb(141, 6, 94);" transform=""/><text x="933.3166666666666" y="392" text-anchor="end" font-family="Inter, Helvetica, sans-serif" font-weight="500" font-size="12" fill="black">Géza II</text><rect x="940.3166666666666" y="386" width="3.6944444444443434" height="6" style="fill: url(&quot;#l_gradient&quot;);" transform=""/><rect x="944.011111111111" y="386" width="125.86111111111131" height="6" style="fill: rgb(57, 177, 213);" transform=""/><rect x="984.7888888888892" y="386" width="85.08333333333303" height="6" style="fill: rgb(141, 6, 94);" transform=""/><text x="1001.3166666666666" y="408" text-anchor="end" font-family="Inter, Helvetica, sans-serif" font-weight="500" font-size="12" fill="black">Stephen III</text><rect x="1008.3166666666666" y="402" width="3.6944444444443434" height="6" style="fill: url(&quot;#l_gradient&quot;);" transform=""/><rect x="1012.011111111111" y="402" width="96.94999999999982" height="6" style="fill: rgb(57, 177, 213);" transform=""/><rect x="1070" y="402" width="38.96111111111077" height="6" style="fill: rgb(141, 6, 94);" transform=""/><text x="937.3166666666666" y="424" text-anchor="end" font-family="Inter, Helvetica, sans-serif" font-weight="500" font-size="12" fill="black">Ladislaus II</text><rect x="944.3166666666666" y="418" width="3.6944444444443434" height="6" style="fill: url(&quot;#l_gradient&quot;);" transform=""/><rect x="948.011111111111" y="418" width="124.44999999999982" height="6" style="fill: rgb(57, 177, 213);" transform=""/><rect x="1070.3055555555557" y="418" width="2.155555555555111" height="6" style="fill: rgb(141, 6, 94);" transform=""/><text x="945.3166666666666" y="440" text-anchor="end" font-family="Inter, Helvetica, sans-serif" font-weight="500" font-size="12" fill="black">Stephen IV</text><rect x="952.3166666666666" y="434" width="3.6944444444443434" height="6" style="fill: url(&quot;#l_gradient&quot;);" transform=""/><rect x="956.011111111111" y="434" width="125.33333333333394" height="6" style="fill: rgb(57, 177, 213);" transform=""/><rect x="1072.6055555555558" y="434" width="8.73888888888905" height="6" style="fill: rgb(141, 6, 94);" transform=""/><text x="1005.3166666666666" y="456" text-anchor="end" font-family="Inter, Helvetica, sans-serif" font-weight="500" font-size="12" fill="black">Béla III</text><rect x="1012.3166666666666" y="450" width="3.6944444444443434" height="6" style="fill: url(&quot;#l_gradient&quot;);" transform=""/><rect x="1016.011111111111" y="450" width="189.46666666666715" height="6" style="fill: rgb(57, 177, 213);" transform=""/><rect x="1112.4499999999998" y="450" width="93.02777777777828" height="6" style="fill: rgb(141, 6, 94);" transform=""/><text x="1109.3166666666666" y="472" text-anchor="end" font-family="Inter, Helvetica, sans-serif" font-weight="500" font-size="12" fill="black">Emeric</text><rect x="1116.3166666666666" y="466" width="3.6944444444443434" height="6" style="fill: url(&quot;#l_gradient&quot;);" transform=""/><rect x="1120.011111111111" y="466" width="119.6833333333334" height="6" style="fill: rgb(57, 177, 213);" transform=""/><rect x="1205.477777777778" y="466" width="34.21666666666624" height="6" style="fill: rgb(141, 6, 94);" transform=""/><rect x="1149.7055555555553" y="466" width="55.77222222222281" height="6" style="fill: rgb(222, 73, 168);" transform=""/><text x="1213.3166666666666" y="488" text-anchor="end" font-family="Inter, Helvetica, sans-serif" font-weight="500" font-size="12" fill="black">Ladislaus III</text><rect x="1220.3166666666666" y="482" width="3.6944444444443434" height="6" style="fill: url(&quot;#l_gradient&quot;);" transform=""/><rect x="1224.011111111111" y="482" width="17.59444444444489" height="6" style="fill: rgb(57, 177, 213);" transform=""/><rect x="1239.6944444444443" y="482" width="1.9111111111114951" height="6" style="fill: rgb(141, 6, 94);" transform=""/><rect x="1238.7333333333336" y="482" width="0.9611111111107675" height="6" style="fill: rgb(222, 73, 168);" transform=""/><text x="1121.3166666666666" y="504" text-anchor="end" font-family="Inter, Helvetica, sans-serif" font-weight="500" font-size="12" fill="black">Andrew II the Jerosolimitan</text><rect x="1128.3166666666666" y="498" width="3.6944444444443434" height="6" style="fill: url(&quot;#l_gradient&quot;);" transform=""/><rect x="1132.011111111111" y="498" width="230.97222222222263" height="6" style="fill: rgb(57, 177, 213);" transform=""/><rect x="1241.8500000000004" y="498" width="121.13333333333321" height="6" style="fill: rgb(141, 6, 94);" transform=""/><text x="1237.3166666666666" y="520" text-anchor="end" font-family="Inter, Helvetica, sans-serif" font-weight="500" font-size="12" fill="black">Béla IV the Second Founder</text><rect x="1244.3166666666666" y="514" width="3.6944444444443434" height="6" style="fill: url(&quot;#l_gradient&quot;);" transform=""/><rect x="1248.011111111111" y="514" width="253.55000000000018" height="6" style="fill: rgb(57, 177, 213);" transform=""/><rect x="1362.6000000000004" y="514" width="138.96111111111077" height="6" style="fill: rgb(141, 6, 94);" transform=""/><rect x="1276.3166666666666" y="514" width="3.6944444444443434" height="6" style="fill: url(&quot;#c_gradient&quot;);" transform=""/><rect x="1280.011111111111" y="514" width="82.58888888888941" height="6" style="fill: rgb(222, 73, 168);" transform=""/><text x="1372.2555555555555" y="536" text-anchor="end" font-family="Inter, Helvetica, sans-serif" font-weight="500" font-size="12" fill="black">Stephen V</text><rect x="1379.2555555555555" y="530" width="131.25555555555547" height="6" style="fill: rgb(57, 177, 213);" transform=""/><rect x="NaN" y="530" width="NaN" height="6" style="fill: rgb(141, 6, 94);" transform=""/><rect x="NaN" y="530" width="NaN" height="6" style="fill: rgb(222, 73, 168);" transform=""/><text x="1463.5" y="552" text-anchor="end" font-family="Inter, Helvetica, sans-serif" font-weight="500" font-size="12" fill="black">Ladislaus IV the Cuman</text><rect x="1470.5" y="546" width="111.75" height="6" style="fill: rgb(57, 177, 213);" transform=""/><rect x="1510.511111111111" y="546" width="71.73888888888905" height="6" style="fill: rgb(141, 6, 94);" transform=""/><text x="1473.3166666666666" y="568" text-anchor="end" font-family="Inter, Helvetica, sans-serif" font-weight="500" font-size="12" fill="black">Andrew III the Venetian</text><rect x="1480.3166666666666" y="562" width="3.6944444444443434" height="6" style="fill: url(&quot;#l_gradient&quot;);" transform=""/><rect x="1484.011111111111" y="562" width="140.44999999999982" height="6" style="fill: rgb(57, 177, 213);" transform=""/><rect x="1582.3944444444442" y="562" width="42.066666666666606" height="6" style="fill: rgb(141, 6, 94);" transform=""/></svg>