<?xml version="1.0" encoding="UTF-8" standalone="no"?>
<!-- Created with Inkscape (http://www.inkscape.org/) -->

<svg
   xmlns:dc="http://purl.org/dc/elements/1.1/"
   xmlns:cc="http://creativecommons.org/ns#"
   xmlns:rdf="http://www.w3.org/1999/02/22-rdf-syntax-ns#"
   xmlns:svg="http://www.w3.org/2000/svg"
   xmlns="http://www.w3.org/2000/svg"
   xmlns:sodipodi="http://sodipodi.sourceforge.net/DTD/sodipodi-0.dtd"
   xmlns:inkscape="http://www.inkscape.org/namespaces/inkscape"
   width="98.689583mm"
   height="14.022913mm"
   viewBox="0 0 98.689581 14.022913"
   id="svg18240"
   version="1.1"
   inkscape:version="0.91+devel r13797 custom"
   sodipodi:docname="dynastiescsv.svg">
  <defs
     id="defs18242" />
  <sodipodi:namedview
     id="base"
     pagecolor="#ffffff"
     bordercolor="#666666"
     borderopacity="1.0"
     inkscape:pageopacity="0.0"
     inkscape:pageshadow="2"
     inkscape:zoom="1.4"
     inkscape:cx="232.56047"
     inkscape:cy="-30.753566"
     inkscape:document-units="mm"
     inkscape:current-layer="layer1"
     showgrid="false"
     inkscape:window-width="1067"
     inkscape:window-height="701"
     inkscape:window-x="297"
     inkscape:window-y="27"
     inkscape:window-maximized="0"
     fit-margin-top="0"
     fit-margin-left="0"
     fit-margin-right="0"
     fit-margin-bottom="0" />
  <metadata
     id="metadata18245">
    <rdf:RDF>
      <cc:Work
         rdf:about="">
        <dc:format>image/svg+xml</dc:format>
        <dc:type
           rdf:resource="http://purl.org/dc/dcmitype/StillImage" />
        <dc:title />
      </cc:Work>
    </rdf:RDF>
  </metadata>
  <g
     inkscape:label="Ebene 1"
     inkscape:groupmode="layer"
     id="layer1"
     transform="translate(-56.69351,-64.774382)">
    <rect
       style="color:#000000;clip-rule:nonzero;display:inline;overflow:visible;visibility:visible;opacity:1;color-interpolation:sRGB;color-interpolation-filters:linearRGB;fill:#eeeeee;fill-opacity:1;fill-rule:nonzero;stroke:#eeeeee;stroke-width:0.79374999;stroke-linecap:square;stroke-linejoin:round;stroke-miterlimit:4;stroke-dasharray:0.79500003, 0.79500003;stroke-dashoffset:0;stroke-opacity:1;marker:none;color-rendering:auto;image-rendering:auto;shape-rendering:auto;text-rendering:auto;enable-background:accumulate"
       id="rect4724"
       width="97.895828"
       height="13.229162"
       x="57.090385"
       y="65.171257" />
    <path
       style="color:#000000;font-style:normal;font-variant:normal;font-weight:normal;font-stretch:normal;font-size:medium;line-height:139.99999762%;font-family:'Ubuntu Mono', monospace;text-align:start;writing-mode:lr-tb;text-anchor:start;clip-rule:nonzero;visibility:visible;color-interpolation:sRGB;color-interpolation-filters:linearRGB;fill:#666666;fill-opacity:1;fill-rule:nonzero;stroke:none;stroke-width:3.77952766;stroke-linecap:square;stroke-linejoin:round;stroke-miterlimit:4;stroke-dasharray:3.00472462, 3.00472462;stroke-dashoffset:0;stroke-opacity:1;marker:none;color-rendering:auto;image-rendering:auto;shape-rendering:auto;text-rendering:auto"
       d="M 108.36328 20.412109 L 107.03516 20.636719 L 107.03516 24.347656 C 106.88582 24.240998 106.66195 24.140922 106.36328 24.044922 C 106.06461 23.948922 105.71888 23.900391 105.32422 23.900391 C 104.82288 23.900391 104.37513 23.9955 103.98047 24.1875 C 103.59647 24.3795 103.26562 24.64695 102.98828 24.988281 C 102.71096 25.329615 102.497 25.740703 102.34766 26.220703 C 102.209 26.690037 102.14062 27.211109 102.14062 27.787109 C 102.14063 28.384441 102.22583 28.924297 102.39648 29.404297 C 102.56715 29.884297 102.8059 30.295385 103.11523 30.636719 C 103.42457 30.967377 103.799 31.222955 104.23633 31.404297 C 104.67366 31.585639 105.15807 31.675781 105.69141 31.675781 C 106.28874 31.675781 106.81177 31.63417 107.25977 31.548828 C 107.70777 31.463512 108.07528 31.376357 108.36328 31.291016 L 108.36328 20.412109 z M 38.363281 20.492188 L 38.363281 21.611328 L 40.507812 21.611328 L 40.507812 28.636719 C 40.507812 29.138053 40.544482 29.580844 40.619141 29.964844 C 40.693799 30.338178 40.822565 30.652203 41.003906 30.908203 C 41.185238 31.164203 41.4309 31.356375 41.740234 31.484375 C 42.049566 31.612375 42.438869 31.675781 42.908203 31.675781 C 43.110861 31.675781 43.303033 31.660906 43.484375 31.628906 C 43.676375 31.596906 43.851719 31.558283 44.011719 31.515625 C 44.171711 31.472942 44.310393 31.43133 44.427734 31.388672 C 44.545076 31.33533 44.635219 31.291766 44.699219 31.259766 L 44.507812 30.140625 C 44.358481 30.225967 44.151434 30.306201 43.884766 30.380859 C 43.6181 30.455518 43.328865 30.492188 43.019531 30.492188 C 42.816873 30.492187 42.641529 30.465451 42.492188 30.412109 C 42.342846 30.358768 42.21408 30.261705 42.107422 30.123047 C 42.011422 29.973705 41.938107 29.783486 41.884766 29.548828 C 41.842107 29.314162 41.820312 29.010053 41.820312 28.636719 L 41.820312 20.492188 L 38.363281 20.492188 z M 78.363281 20.492188 L 78.363281 21.611328 L 80.507812 21.611328 L 80.507812 28.636719 C 80.507812 29.138053 80.544482 29.580844 80.619141 29.964844 C 80.693799 30.338178 80.822565 30.652203 81.003906 30.908203 C 81.18524 31.164203 81.430903 31.356375 81.740234 31.484375 C 82.049569 31.612375 82.438869 31.675781 82.908203 31.675781 C 83.110861 31.675781 83.303033 31.660906 83.484375 31.628906 C 83.676375 31.596906 83.851719 31.558283 84.011719 31.515625 C 84.171709 31.472942 84.310393 31.43133 84.427734 31.388672 C 84.545076 31.33533 84.635219 31.291766 84.699219 31.259766 L 84.507812 30.140625 C 84.358478 30.225967 84.151431 30.306201 83.884766 30.380859 C 83.6181 30.455518 83.328865 30.492188 83.019531 30.492188 C 82.816873 30.492187 82.641529 30.465451 82.492188 30.412109 C 82.342846 30.358768 82.21408 30.261705 82.107422 30.123047 C 82.011422 29.973705 81.938107 29.783486 81.884766 29.548828 C 81.842107 29.314162 81.820312 29.010053 81.820312 28.636719 L 81.820312 20.492188 L 78.363281 20.492188 z M 48.84375 20.779297 C 48.566411 20.779297 48.327658 20.876359 48.125 21.068359 C 47.922342 21.260359 47.820312 21.520897 47.820312 21.851562 C 47.820313 22.182228 47.922342 22.444719 48.125 22.636719 C 48.327666 22.828719 48.566418 22.923828 48.84375 22.923828 C 49.13175 22.923828 49.372453 22.828719 49.564453 22.636719 C 49.767111 22.444719 49.867188 22.182228 49.867188 21.851562 C 49.867187 21.520897 49.767111 21.260359 49.564453 21.068359 C 49.372453 20.876359 49.13175 20.779297 48.84375 20.779297 z M 112.84375 20.779297 C 112.56641 20.779297 112.32766 20.876359 112.125 21.068359 C 111.92234 21.260359 111.82031 21.520897 111.82031 21.851562 C 111.82031 22.182228 111.92234 22.444719 112.125 22.636719 C 112.32767 22.828719 112.56642 22.923828 112.84375 22.923828 C 113.13175 22.923828 113.37245 22.828719 113.56445 22.636719 C 113.76711 22.444719 113.86719 22.182228 113.86719 21.851562 C 113.86719 21.520897 113.76711 21.260359 113.56445 21.068359 C 113.37245 20.876359 113.13175 20.779297 112.84375 20.779297 z M 74.363281 21.371094 C 73.797947 21.371094 73.265006 21.483031 72.763672 21.707031 C 72.26234 21.931031 71.824506 22.261885 71.451172 22.699219 C 71.077838 23.13655 70.780641 23.676406 70.556641 24.316406 C 70.343299 24.956406 70.236328 25.696394 70.236328 26.539062 C 70.236328 27.424394 70.338357 28.193082 70.541016 28.84375 C 70.75435 29.494416 71.041631 30.034272 71.404297 30.460938 C 71.766963 30.87693 72.192925 31.190955 72.683594 31.404297 C 73.184925 31.606955 73.729738 31.707031 74.316406 31.707031 C 74.796406 31.707031 75.244156 31.655486 75.660156 31.548828 C 76.086822 31.452836 76.486041 31.297326 76.859375 31.083984 L 76.507812 29.996094 C 76.145147 30.198752 75.792506 30.342393 75.451172 30.427734 C 75.10984 30.502393 74.785897 30.539062 74.476562 30.539062 C 74.060563 30.539063 73.67126 30.460781 73.308594 30.300781 C 72.956594 30.140781 72.652484 29.895119 72.396484 29.564453 C 72.140492 29.233785 71.938404 28.817738 71.789062 28.316406 C 71.650404 27.815072 71.580078 27.221728 71.580078 26.539062 C 71.580078 25.931063 71.643484 25.383246 71.771484 24.892578 C 71.910143 24.401912 72.102315 23.980906 72.347656 23.628906 C 72.592988 23.276914 72.887181 23.009467 73.228516 22.828125 C 73.580516 22.636125 73.974775 22.539062 74.412109 22.539062 C 75.030775 22.539062 75.692484 22.743103 76.396484 23.148438 L 76.779297 22.060547 C 76.384631 21.815205 75.980453 21.637908 75.564453 21.53125 C 75.159119 21.424592 74.757947 21.371094 74.363281 21.371094 z M 281.5 21.371094 C 280.46532 21.371094 279.65998 21.820797 279.08398 22.716797 C 278.51867 23.602131 278.23633 24.875063 278.23633 26.539062 C 278.23633 28.203062 278.51867 29.484859 279.08398 30.380859 C 279.65998 31.266191 280.46532 31.708984 281.5 31.708984 C 282.54532 31.708984 283.35067 31.266191 283.91602 30.380859 C 284.48136 29.484859 284.76367 28.203062 284.76367 26.539062 C 284.76367 24.875063 284.48136 23.602131 283.91602 22.716797 C 283.35067 21.820797 282.54532 21.371094 281.5 21.371094 z M 289.5 21.371094 C 288.46534 21.371094 287.65998 21.820797 287.08398 22.716797 C 286.51864 23.602131 286.23633 24.875063 286.23633 26.539062 C 286.23633 28.203062 286.51864 29.484859 287.08398 30.380859 C 287.65998 31.266191 288.46534 31.708984 289.5 31.708984 C 290.54534 31.708984 291.35067 31.266191 291.91602 30.380859 C 292.48133 29.484859 292.76367 28.203062 292.76367 26.539062 C 292.76367 24.875063 292.48133 23.602131 291.91602 22.716797 C 291.35067 21.820797 290.54534 21.371094 289.5 21.371094 z M 307.99609 21.548828 C 307.12144 21.559494 306.33787 21.698178 305.64453 21.964844 C 304.95121 22.231512 304.35787 22.613903 303.86719 23.115234 C 303.38719 23.616569 303.01471 24.241615 302.74805 24.988281 C 302.49205 25.724281 302.36328 26.57125 302.36328 27.53125 C 302.36328 28.84325 302.63569 29.867516 303.17969 30.603516 C 303.72369 31.339516 304.54587 31.707031 305.64453 31.707031 C 306.17787 31.707031 306.63553 31.611922 307.01953 31.419922 C 307.40346 31.217256 307.71747 30.961678 307.96289 30.652344 C 308.20813 30.332344 308.3904 29.98466 308.50781 29.611328 C 308.62523 29.227328 308.68359 28.854856 308.68359 28.492188 C 308.68359 28.097522 308.63002 27.713178 308.52344 27.339844 C 308.4167 26.966512 308.2463 26.640615 308.01172 26.363281 C 307.77704 26.075274 307.46302 25.84644 307.06836 25.675781 C 306.68436 25.505123 306.21481 25.419922 305.66016 25.419922 C 305.31881 25.419922 304.99294 25.456592 304.68359 25.53125 C 304.38494 25.605908 304.10756 25.702971 303.85156 25.820312 C 303.97949 25.244313 304.16669 24.75795 304.41211 24.363281 C 304.65743 23.968623 304.96154 23.649639 305.32422 23.404297 C 305.68688 23.148289 306.09798 22.966033 306.55664 22.859375 C 307.02598 22.741958 307.54208 22.678551 308.10742 22.667969 L 307.99609 21.548828 z M 23.53125 21.595703 L 23.53125 22.716797 L 26.908203 22.716797 L 26.908203 28.1875 C 26.908203 29.0515 26.737819 29.664678 26.396484 30.027344 C 26.065819 30.390012 25.559619 30.572266 24.876953 30.572266 C 24.428953 30.572266 24.03274 30.487065 23.691406 30.316406 C 23.36073 30.145748 23.095236 29.985279 22.892578 29.835938 L 22.363281 30.908203 C 22.56595 31.078861 22.886887 31.254205 23.324219 31.435547 C 23.761553 31.616889 24.299453 31.707031 24.939453 31.707031 C 25.579453 31.707031 26.107438 31.62183 26.523438 31.451172 C 26.950096 31.269838 27.285908 31.031088 27.53125 30.732422 C 27.78725 30.423088 27.964547 30.060531 28.060547 29.644531 C 28.167205 29.228531 28.220703 28.785738 28.220703 28.316406 L 28.220703 21.595703 L 23.53125 21.595703 z M 152.7168 21.595703 C 152.3968 22.385035 152.09269 23.217129 151.80469 24.091797 C 151.51669 24.955797 151.23932 25.819594 150.97266 26.683594 C 150.71666 27.547594 150.47595 28.391559 150.25195 29.212891 C 150.02796 30.034225 149.82587 30.796 149.64453 31.5 L 150.98828 31.5 L 151.56445 28.908203 L 155.37305 28.908203 L 155.96484 31.5 L 157.35547 31.5 C 157.17413 30.796 156.97205 30.034225 156.74805 29.212891 C 156.52405 28.391559 156.28334 27.547594 156.02734 26.683594 C 155.78201 25.819594 155.51652 24.955797 155.22852 24.091797 C 154.95118 23.217129 154.65699 22.385035 154.34766 21.595703 L 152.7168 21.595703 z M 222.38086 21.595703 L 222.38086 31.5 L 223.58008 31.5 L 223.58008 23.595703 C 223.87874 24.161037 224.17294 24.727635 224.46094 25.292969 C 224.74894 25.847635 225.03622 26.439025 225.32422 27.068359 C 225.6229 27.697691 225.93195 28.374275 226.25195 29.099609 C 226.57195 29.814275 226.91273 30.614666 227.27539 31.5 L 228.61914 31.5 L 228.61914 21.595703 L 227.41992 21.595703 L 227.41992 29.212891 C 227.09992 28.434225 226.81264 27.750728 226.55664 27.164062 C 226.30064 26.566728 226.0332 25.990213 225.75586 25.435547 C 225.4892 24.870213 225.19003 24.28874 224.85938 23.691406 C 224.53938 23.094075 224.16195 22.395703 223.72461 21.595703 L 222.38086 21.595703 z M 264.36328 21.595703 L 263.86719 24.220703 L 261.93164 24.220703 L 261.93164 25.275391 L 263.64453 25.275391 L 263.16406 27.820312 L 261.93164 27.820312 L 261.93164 28.892578 L 262.95508 28.892578 L 262.46094 31.5 L 263.66016 31.5 L 264.15625 28.892578 L 265.93164 28.892578 L 265.43555 31.5 L 266.63672 31.5 L 267.13281 28.892578 L 269.06836 28.892578 L 269.06836 27.820312 L 267.33984 27.820312 L 267.83594 25.275391 L 269.06836 25.275391 L 269.06836 24.220703 L 268.04492 24.220703 L 268.52344 21.595703 L 267.32422 21.595703 L 266.84375 24.220703 L 265.06836 24.220703 L 265.56445 21.595703 L 264.36328 21.595703 z M 298.50781 21.595703 C 298.04913 22.054369 297.59644 22.572438 297.14844 23.148438 C 296.70044 23.713772 296.27942 24.295246 295.88477 24.892578 C 295.49011 25.479246 295.1325 26.04885 294.8125 26.603516 C 294.50323 27.158181 294.25759 27.649504 294.07617 28.076172 L 294.07617 28.972656 L 298.50781 28.972656 L 298.50781 31.5 L 299.78711 31.5 L 299.78711 28.972656 L 300.95703 28.972656 L 300.95703 27.884766 L 299.78711 27.884766 L 299.78711 21.595703 L 298.50781 21.595703 z M 311.53125 21.595703 C 311.50882 22.022369 311.48891 22.4285 311.46875 22.8125 C 311.45817 23.1965 311.4363 23.585803 311.4043 23.980469 C 311.38288 24.364469 311.35118 24.763688 311.30859 25.179688 C 311.27659 25.585022 311.22806 26.022853 311.16406 26.492188 C 311.96406 26.492187 312.62578 26.545685 313.14844 26.652344 C 313.68178 26.748344 314.09783 26.891984 314.39648 27.083984 C 314.70573 27.275984 314.91774 27.516688 315.03516 27.804688 C 315.16316 28.082022 315.22852 28.401006 315.22852 28.763672 C 315.22852 28.99833 315.18503 29.222205 315.09961 29.435547 C 315.02503 29.648889 314.89821 29.84106 314.7168 30.011719 C 314.54611 30.171719 314.31534 30.300484 314.02734 30.396484 C 313.73934 30.492484 313.38174 30.539062 312.95508 30.539062 C 312.41108 30.539063 311.95836 30.480623 311.5957 30.363281 C 311.2436 30.245965 310.98308 30.145889 310.8125 30.060547 L 310.55664 31.195312 C 310.63148 31.237971 310.75325 31.291469 310.92383 31.355469 C 311.09449 31.408785 311.29163 31.462283 311.51562 31.515625 C 311.73955 31.568967 311.97529 31.612531 312.2207 31.644531 C 312.4767 31.68719 312.73228 31.708984 312.98828 31.708984 C 313.60694 31.708984 314.13989 31.633717 314.58789 31.484375 C 315.04655 31.335041 315.42098 31.126041 315.70898 30.859375 C 316.00774 30.592707 316.2247 30.273722 316.36328 29.900391 C 316.50186 29.527056 316.57227 29.120928 316.57227 28.683594 C 316.57227 27.712928 316.24636 26.939281 315.5957 26.363281 C 314.94504 25.787289 313.9059 25.473264 312.47656 25.419922 C 312.48841 25.270598 312.50328 25.073467 312.52344 24.828125 C 312.54586 24.582791 312.56773 24.327213 312.58789 24.060547 C 312.60981 23.793871 312.62664 23.543252 312.63672 23.308594 C 312.65864 23.06327 312.67352 22.866139 312.68359 22.716797 L 316.30078 22.716797 L 316.30078 21.595703 L 311.53125 21.595703 z M 193.38867 21.771484 L 192.07617 21.996094 L 192.07617 24.076172 L 190.50781 24.076172 L 190.50781 25.179688 L 192.07617 25.179688 L 192.07617 28.636719 C 192.07617 29.138053 192.11292 29.580844 192.1875 29.964844 C 192.26216 30.338178 192.39589 30.652203 192.58789 30.908203 C 192.79057 31.164203 193.06792 31.356375 193.41992 31.484375 C 193.77192 31.612375 194.22464 31.675781 194.7793 31.675781 C 195.2593 31.675781 195.66047 31.622283 195.98047 31.515625 C 196.31105 31.408967 196.5498 31.323766 196.69922 31.259766 L 196.50781 30.140625 C 196.2944 30.247283 196.07052 30.332484 195.83594 30.396484 C 195.60128 30.460484 195.2922 30.492188 194.9082 30.492188 C 194.63086 30.492187 194.39512 30.465451 194.20312 30.412109 C 194.01113 30.358768 193.85261 30.261705 193.72461 30.123047 C 193.60744 29.973705 193.52217 29.783486 193.46875 29.548828 C 193.41533 29.314162 193.38867 29.010053 193.38867 28.636719 L 193.38867 25.179688 L 196.52344 25.179688 L 196.52344 24.076172 L 193.38867 24.076172 L 193.38867 21.771484 z M 281.5 22.539062 C 281.86258 22.539062 282.16669 22.646033 282.41211 22.859375 C 282.65735 23.072709 282.85449 23.361944 283.00391 23.724609 C 283.15332 24.087275 283.26022 24.513238 283.32422 25.003906 C 283.38822 25.483906 283.41992 25.995063 283.41992 26.539062 C 283.41992 27.083062 283.38822 27.601131 283.32422 28.091797 C 283.26022 28.571797 283.15332 28.992803 283.00391 29.355469 C 282.85467 29.718127 282.65753 30.007361 282.41211 30.220703 C 282.16677 30.434045 281.86266 30.539062 281.5 30.539062 C 281.13742 30.539062 280.83331 30.434045 280.58789 30.220703 C 280.34262 30.007371 280.14551 29.718137 279.99609 29.355469 C 279.84668 28.992803 279.73978 28.571797 279.67578 28.091797 C 279.61178 27.601131 279.58008 27.083062 279.58008 26.539062 C 279.58008 25.995063 279.61178 25.483906 279.67578 25.003906 C 279.73978 24.513238 279.84668 24.087275 279.99609 23.724609 C 280.14536 23.361951 280.34247 23.072717 280.58789 22.859375 C 280.83321 22.646033 281.13732 22.539062 281.5 22.539062 z M 289.5 22.539062 C 289.86258 22.539062 290.16669 22.646033 290.41211 22.859375 C 290.65738 23.072709 290.85449 23.361944 291.00391 23.724609 C 291.15332 24.087275 291.26022 24.513238 291.32422 25.003906 C 291.38822 25.483906 291.41992 25.995063 291.41992 26.539062 C 291.41992 27.083062 291.38822 27.601131 291.32422 28.091797 C 291.26022 28.571797 291.15332 28.992803 291.00391 29.355469 C 290.85464 29.718127 290.65753 30.007361 290.41211 30.220703 C 290.16679 30.434045 289.86268 30.539062 289.5 30.539062 C 289.13742 30.539062 288.83331 30.434045 288.58789 30.220703 C 288.34265 30.007371 288.14551 29.718137 287.99609 29.355469 C 287.84668 28.992803 287.73978 28.571797 287.67578 28.091797 C 287.61178 27.601131 287.58008 27.083062 287.58008 26.539062 C 287.58008 25.995063 287.61178 25.483906 287.67578 25.003906 C 287.73978 24.513238 287.84668 24.087275 287.99609 23.724609 C 288.14533 23.361951 288.34247 23.072717 288.58789 22.859375 C 288.83323 22.646033 289.13734 22.539062 289.5 22.539062 z M 153.48438 22.748047 C 153.72971 23.388047 153.99024 24.156734 154.26758 25.052734 C 154.55557 25.938066 154.82302 26.860313 155.06836 27.820312 L 151.86719 27.820312 C 152.12319 26.881647 152.39559 25.969319 152.68359 25.083984 C 152.97158 24.198653 153.23903 23.420047 153.48438 22.748047 z M 298.50781 23.164062 L 298.50781 27.884766 L 295.35547 27.884766 C 295.54754 27.468766 295.76151 27.045809 295.99609 26.619141 C 296.24144 26.192475 296.50196 25.776428 296.7793 25.371094 C 297.05661 24.955094 297.34091 24.560832 297.62891 24.1875 C 297.92759 23.814166 298.21981 23.473397 298.50781 23.164062 z M 57.484375 23.900391 C 57.004375 23.900391 56.556625 23.9955 56.140625 24.1875 C 55.735291 24.368832 55.38265 24.631322 55.083984 24.972656 C 54.785308 25.303322 54.551518 25.7075 54.380859 26.1875 C 54.220859 26.6675 54.140625 27.200441 54.140625 27.787109 C 54.140625 28.373775 54.220859 28.908672 54.380859 29.388672 C 54.551525 29.858006 54.785316 30.262184 55.083984 30.603516 C 55.38265 30.94485 55.735291 31.212297 56.140625 31.404297 C 56.556625 31.585639 57.004375 31.675781 57.484375 31.675781 C 57.975041 31.675781 58.42775 31.585639 58.84375 31.404297 C 59.25975 31.212297 59.61735 30.94485 59.916016 30.603516 C 60.214684 30.262184 60.443516 29.858006 60.603516 29.388672 C 60.774174 28.908672 60.859375 28.373775 60.859375 27.787109 C 60.859375 27.200441 60.774174 26.6675 60.603516 26.1875 C 60.443516 25.7075 60.214684 25.303322 59.916016 24.972656 C 59.61735 24.631332 59.25975 24.368842 58.84375 24.1875 C 58.42775 23.9955 57.975041 23.900391 57.484375 23.900391 z M 89.451172 23.900391 C 88.971172 23.900391 88.518463 23.932094 88.091797 23.996094 C 87.675804 24.060094 87.376654 24.135361 87.195312 24.220703 L 87.355469 25.308594 C 87.5368 25.244594 87.799291 25.179234 88.140625 25.115234 C 88.481959 25.051234 88.881178 25.019531 89.339844 25.019531 C 89.70251 25.019531 89.996703 25.073029 90.220703 25.179688 C 90.455369 25.275698 90.635672 25.40942 90.763672 25.580078 C 90.902355 25.750736 90.992498 25.942908 91.035156 26.15625 C 91.088498 26.358916 91.115234 26.572875 91.115234 26.796875 L 91.115234 27.164062 C 90.6139 27.046721 90.102744 26.988281 89.580078 26.988281 C 89.196078 26.988281 88.811734 27.029893 88.427734 27.115234 C 88.0544 27.189893 87.718588 27.318658 87.419922 27.5 C 87.131922 27.681332 86.891219 27.922035 86.699219 28.220703 C 86.517877 28.508703 86.427734 28.866303 86.427734 29.292969 C 86.427734 29.772969 86.517877 30.167228 86.699219 30.476562 C 86.880553 30.785887 87.121256 31.031549 87.419922 31.212891 C 87.718588 31.383549 88.059359 31.500453 88.443359 31.564453 C 88.827359 31.639111 89.223572 31.675781 89.628906 31.675781 C 90.162238 31.675781 90.678353 31.639111 91.179688 31.564453 C 91.691687 31.489795 92.102775 31.424435 92.412109 31.371094 L 92.412109 26.732422 C 92.412109 26.316422 92.363578 25.932078 92.267578 25.580078 C 92.171568 25.228086 92.006143 24.928935 91.771484 24.683594 C 91.536819 24.438252 91.22775 24.24608 90.84375 24.107422 C 90.470416 23.968764 90.005838 23.900391 89.451172 23.900391 z M 121.45117 23.900391 C 120.97117 23.900391 120.51846 23.932094 120.0918 23.996094 C 119.6758 24.060094 119.37665 24.135361 119.19531 24.220703 L 119.35547 25.308594 C 119.5368 25.244594 119.79929 25.179234 120.14062 25.115234 C 120.48196 25.051234 120.88118 25.019531 121.33984 25.019531 C 121.70251 25.019531 121.9967 25.073029 122.2207 25.179688 C 122.45537 25.275698 122.63567 25.40942 122.76367 25.580078 C 122.90236 25.750736 122.9925 25.942908 123.03516 26.15625 C 123.0885 26.358916 123.11523 26.572875 123.11523 26.796875 L 123.11523 27.164062 C 122.6139 27.046721 122.10274 26.988281 121.58008 26.988281 C 121.19608 26.988281 120.81173 27.029893 120.42773 27.115234 C 120.0544 27.189893 119.71859 27.318658 119.41992 27.5 C 119.13192 27.681332 118.89122 27.922035 118.69922 28.220703 C 118.51788 28.508703 118.42773 28.866303 118.42773 29.292969 C 118.42773 29.772969 118.51788 30.167228 118.69922 30.476562 C 118.88055 30.785887 119.12126 31.031549 119.41992 31.212891 C 119.71859 31.383549 120.05936 31.500453 120.44336 31.564453 C 120.82736 31.639111 121.22357 31.675781 121.62891 31.675781 C 122.16224 31.675781 122.67836 31.639111 123.17969 31.564453 C 123.69169 31.489795 124.10278 31.424435 124.41211 31.371094 L 124.41211 26.732422 C 124.41211 26.316422 124.36358 25.932078 124.26758 25.580078 C 124.17157 25.228086 124.00614 24.928935 123.77148 24.683594 C 123.53682 24.438252 123.22775 24.24608 122.84375 24.107422 C 122.47042 23.968764 122.00584 23.900391 121.45117 23.900391 z M 137.70898 23.900391 C 136.67432 23.900391 135.91059 24.102481 135.41992 24.507812 C 134.93992 24.902481 134.69922 25.398762 134.69922 25.996094 C 134.69922 26.422762 134.80619 26.76849 135.01953 27.035156 C 135.24353 27.301815 135.51594 27.52569 135.83594 27.707031 C 136.16661 27.888365 136.5242 28.043875 136.9082 28.171875 C 137.2922 28.289217 137.64484 28.411063 137.96484 28.539062 C 138.2955 28.667073 138.56596 28.817623 138.7793 28.988281 C 139.0033 29.158947 139.11523 29.377865 139.11523 29.644531 C 139.11523 30.252531 138.51393 30.556641 137.30859 30.556641 C 136.83926 30.556641 136.39647 30.503143 135.98047 30.396484 C 135.57514 30.279143 135.18583 30.133549 134.8125 29.962891 L 134.55664 31.164062 C 134.94064 31.334721 135.34482 31.461533 135.77148 31.546875 C 136.19815 31.632217 136.66769 31.675781 137.17969 31.675781 C 138.31036 31.675781 139.13749 31.495481 139.66016 31.132812 C 140.18282 30.759481 140.44336 30.236453 140.44336 29.564453 C 140.44336 29.148453 140.33142 28.805731 140.10742 28.539062 C 139.89409 28.261731 139.62364 28.027937 139.29297 27.835938 C 138.9623 27.643938 138.6047 27.483469 138.2207 27.355469 C 137.8367 27.2168 137.4791 27.083078 137.14844 26.955078 C 136.81777 26.827088 136.54041 26.688404 136.31641 26.539062 C 136.10306 26.379063 135.99609 26.186891 135.99609 25.962891 C 135.99609 25.333556 136.57261 25.019531 137.72461 25.019531 C 137.92727 25.019531 138.13431 25.031317 138.34766 25.052734 C 138.57166 25.074076 138.78066 25.105779 138.97266 25.148438 C 139.16465 25.180437 139.33503 25.222049 139.48438 25.275391 C 139.63369 25.318074 139.7506 25.361639 139.83594 25.404297 L 140.07617 24.220703 C 139.76684 24.124703 139.39437 24.049435 138.95703 23.996094 C 138.53037 23.932094 138.11432 23.900391 137.70898 23.900391 z M 169.58008 23.900391 C 169.03608 23.900391 168.55166 23.9955 168.125 24.1875 C 167.69832 24.368832 167.33577 24.62441 167.03711 24.955078 C 166.74911 25.285744 166.52328 25.681959 166.36328 26.140625 C 166.21386 26.588625 166.14062 27.084906 166.14062 27.628906 C 166.14062 28.247575 166.22086 28.785475 166.38086 29.244141 C 166.55154 29.692141 166.77542 30.064615 167.05273 30.363281 C 167.34073 30.651274 167.67158 30.87019 168.04492 31.019531 C 168.42892 31.15819 168.83805 31.228516 169.27539 31.228516 C 169.68071 31.228516 170.03831 31.179984 170.34766 31.083984 C 170.6569 30.987984 170.88574 30.897842 171.03516 30.8125 L 171.03711 30.8125 L 171.03711 31.068359 C 171.03711 31.761694 170.87167 32.262934 170.54102 32.572266 C 170.21036 32.8816 169.66058 33.035156 168.89258 33.035156 C 168.46589 33.035156 168.07164 32.998486 167.70898 32.923828 C 167.35698 32.84917 167.04101 32.75406 166.76367 32.636719 L 166.52344 33.804688 C 166.82212 33.911371 167.16483 34.001514 167.54883 34.076172 C 167.94349 34.15083 168.37938 34.1875 168.85938 34.1875 C 170.03272 34.1875 170.90838 33.931922 171.48438 33.419922 C 172.07103 32.907922 172.36328 32.075828 172.36328 30.923828 L 172.36328 24.300781 C 172.05394 24.215465 171.67155 24.130264 171.21289 24.044922 C 170.76489 23.948922 170.22008 23.900391 169.58008 23.900391 z M 185.70703 23.900391 C 184.67237 23.900391 183.91061 24.102481 183.41992 24.507812 C 182.93992 24.902481 182.69922 25.398762 182.69922 25.996094 C 182.69922 26.422762 182.80611 26.76849 183.01953 27.035156 C 183.24353 27.301815 183.51594 27.52569 183.83594 27.707031 C 184.1666 27.888365 184.5242 28.043875 184.9082 28.171875 C 185.2922 28.289217 185.64484 28.411063 185.96484 28.539062 C 186.29543 28.667073 186.56588 28.817623 186.7793 28.988281 C 187.0033 29.158947 187.11523 29.377865 187.11523 29.644531 C 187.11523 30.252531 186.51391 30.556641 185.30859 30.556641 C 184.83925 30.556641 184.39647 30.503143 183.98047 30.396484 C 183.57513 30.279143 183.18582 30.133549 182.8125 29.962891 L 182.55664 31.164062 C 182.94064 31.334721 183.3448 31.461533 183.77148 31.546875 C 184.19814 31.632217 184.66769 31.675781 185.17969 31.675781 C 186.31035 31.675781 187.13747 31.495481 187.66016 31.132812 C 188.18281 30.759481 188.44336 30.236453 188.44336 29.564453 C 188.44336 29.148453 188.33142 28.805731 188.10742 28.539062 C 187.89408 28.261731 187.62363 28.027937 187.29297 27.835938 C 186.96231 27.643938 186.6047 27.483469 186.2207 27.355469 C 185.8367 27.2168 185.47912 27.083078 185.14844 26.955078 C 184.81778 26.827088 184.54041 26.688404 184.31641 26.539062 C 184.10299 26.379063 183.99609 26.186891 183.99609 25.962891 C 183.99609 25.333556 184.57261 25.019531 185.72461 25.019531 C 185.92719 25.019531 186.13424 25.031317 186.34766 25.052734 C 186.57166 25.074076 186.78066 25.105779 186.97266 25.148438 C 187.16458 25.180437 187.33496 25.222049 187.48438 25.275391 C 187.63354 25.318074 187.75052 25.361639 187.83594 25.404297 L 188.07617 24.220703 C 187.76686 24.124703 187.39242 24.049435 186.95508 23.996094 C 186.52842 23.932094 186.11237 23.900391 185.70703 23.900391 z M 209.70703 23.900391 C 208.67237 23.900391 207.91061 24.102481 207.41992 24.507812 C 206.93992 24.902481 206.69922 25.398762 206.69922 25.996094 C 206.69922 26.422762 206.80611 26.76849 207.01953 27.035156 C 207.24353 27.301815 207.51594 27.52569 207.83594 27.707031 C 208.1666 27.888365 208.5242 28.043875 208.9082 28.171875 C 209.2922 28.289217 209.64484 28.411063 209.96484 28.539062 C 210.29543 28.667073 210.56588 28.817623 210.7793 28.988281 C 211.0033 29.158947 211.11523 29.377865 211.11523 29.644531 C 211.11523 30.252531 210.51391 30.556641 209.30859 30.556641 C 208.83925 30.556641 208.39647 30.503143 207.98047 30.396484 C 207.57513 30.279143 207.18582 30.133549 206.8125 29.962891 L 206.55664 31.164062 C 206.94064 31.334721 207.3448 31.461533 207.77148 31.546875 C 208.19814 31.632217 208.66769 31.675781 209.17969 31.675781 C 210.31035 31.675781 211.13747 31.495481 211.66016 31.132812 C 212.18281 30.759481 212.44336 30.236453 212.44336 29.564453 C 212.44336 29.148453 212.33142 28.805731 212.10742 28.539062 C 211.89408 28.261731 211.62363 28.027937 211.29297 27.835938 C 210.96231 27.643938 210.6047 27.483469 210.2207 27.355469 C 209.8367 27.2168 209.47912 27.083078 209.14844 26.955078 C 208.81778 26.827088 208.54041 26.688404 208.31641 26.539062 C 208.10299 26.379063 207.99609 26.186891 207.99609 25.962891 C 207.99609 25.333556 208.57261 25.019531 209.72461 25.019531 C 209.92719 25.019531 210.13424 25.031317 210.34766 25.052734 C 210.57166 25.074076 210.78066 25.105779 210.97266 25.148438 C 211.16458 25.180437 211.33496 25.222049 211.48438 25.275391 C 211.63354 25.318074 211.75052 25.361639 211.83594 25.404297 L 212.07617 24.220703 C 211.76686 24.124703 211.39242 24.049435 210.95508 23.996094 C 210.52842 23.932094 210.11237 23.900391 209.70703 23.900391 z M 233.64453 23.900391 C 233.20721 23.900391 232.77928 23.980625 232.36328 24.140625 C 231.94728 24.300625 231.57482 24.539375 231.24414 24.859375 C 230.91341 25.179375 230.64594 25.585506 230.44336 26.076172 C 230.24078 26.566838 230.14062 27.143353 230.14062 27.804688 C 230.14062 28.359353 230.22086 28.875469 230.38086 29.355469 C 230.54086 29.824803 230.77961 30.230931 231.09961 30.572266 C 231.41961 30.913607 231.82078 31.186014 232.30078 31.388672 C 232.79146 31.580672 233.35609 31.675781 233.99609 31.675781 C 234.51875 31.675781 234.9883 31.62725 235.4043 31.53125 C 235.8203 31.43525 236.10758 31.345107 236.26758 31.259766 L 236.0918 30.140625 C 235.92114 30.225967 235.6705 30.306201 235.33984 30.380859 C 235.00916 30.455518 234.60994 30.492188 234.14062 30.492188 C 233.31928 30.492188 232.67936 30.295056 232.2207 29.900391 C 231.77278 29.495056 231.52217 28.908625 231.46875 28.140625 L 236.7793 28.140625 L 236.7793 27.675781 C 236.7793 26.40645 236.50884 25.462418 235.96484 24.84375 C 235.42084 24.214418 234.64721 23.900391 233.64453 23.900391 z M 249.48438 23.900391 C 249.0044 23.900391 248.55662 23.9955 248.14062 24.1875 C 247.73528 24.368832 247.38264 24.631322 247.08398 24.972656 C 246.78523 25.303322 246.55144 25.7075 246.38086 26.1875 C 246.22086 26.6675 246.14062 27.200441 246.14062 27.787109 C 246.14062 28.373775 246.22086 28.908672 246.38086 29.388672 C 246.55152 29.858006 246.7853 30.262184 247.08398 30.603516 C 247.38264 30.94485 247.73528 31.212297 248.14062 31.404297 C 248.55662 31.585639 249.0044 31.675781 249.48438 31.675781 C 249.97506 31.675781 250.42775 31.585639 250.84375 31.404297 C 251.25975 31.212297 251.61736 30.94485 251.91602 30.603516 C 252.21467 30.262184 252.44352 29.858006 252.60352 29.388672 C 252.7741 28.908672 252.85938 28.373775 252.85938 27.787109 C 252.85938 27.200441 252.7741 26.6675 252.60352 26.1875 C 252.44352 25.7075 252.21467 25.303322 251.91602 24.972656 C 251.61736 24.631332 251.25975 24.368842 250.84375 24.1875 C 250.42775 23.9955 249.97506 23.900391 249.48438 23.900391 z M 274.38086 23.900391 C 273.81552 23.900391 273.28061 23.980625 272.7793 24.140625 C 272.28861 24.289957 271.85769 24.52375 271.48438 24.84375 C 271.11111 25.16375 270.81693 25.569879 270.60352 26.060547 C 270.3901 26.551213 270.2832 27.132688 270.2832 27.804688 C 270.2832 28.444687 270.38027 29.009334 270.57227 29.5 C 270.77492 29.98 271.0523 30.379219 271.4043 30.699219 C 271.76696 31.019229 272.19291 31.264889 272.68359 31.435547 C 273.18491 31.595547 273.73469 31.675781 274.33203 31.675781 C 274.78003 31.675781 275.19608 31.644078 275.58008 31.580078 C 275.96408 31.526736 276.34346 31.431627 276.7168 31.292969 L 276.52344 30.1875 C 276.1501 30.3155 275.80437 30.400701 275.48438 30.443359 C 275.17503 30.475359 274.84913 30.492188 274.50781 30.492188 C 274.08113 30.492188 273.69184 30.43869 273.33984 30.332031 C 272.98784 30.225373 272.68373 30.064904 272.42773 29.851562 C 272.18232 29.627563 271.99015 29.3502 271.85156 29.019531 C 271.71298 28.6782 271.64453 28.274022 271.64453 27.804688 C 271.64453 27.314022 271.71972 26.897975 271.86914 26.556641 C 272.01838 26.204648 272.21552 25.920373 272.46094 25.707031 C 272.71694 25.483031 273.01413 25.324516 273.35547 25.228516 C 273.69679 25.121857 274.05936 25.068359 274.44336 25.068359 C 274.74204 25.068359 275.03622 25.090154 275.32422 25.132812 C 275.62288 25.164812 275.94878 25.243094 276.30078 25.371094 L 276.60352 24.236328 C 276.1982 24.108328 275.81581 24.023127 275.45312 23.980469 C 275.10113 23.927127 274.74352 23.900391 274.38086 23.900391 z M 129.4043 23.916016 C 128.9883 23.916016 128.54055 23.947719 128.06055 24.011719 C 127.59122 24.075719 127.11672 24.165861 126.63672 24.283203 L 126.63672 31.5 L 127.96484 31.5 L 127.96484 25.228516 C 128.18885 25.185933 128.41769 25.15423 128.65234 25.132812 C 128.89767 25.100813 129.1265 25.083984 129.33984 25.083984 C 129.59584 25.083984 129.83158 25.115688 130.04492 25.179688 C 130.26891 25.243687 130.45417 25.360592 130.60352 25.53125 C 130.76352 25.69125 130.88731 25.922037 130.97266 26.220703 C 131.058 26.519369 131.09961 26.908672 131.09961 27.388672 L 131.09961 31.5 L 132.41211 31.5 L 132.41211 27.148438 C 132.41211 26.017772 132.15653 25.195594 131.64453 24.683594 C 131.1432 24.171594 130.3963 23.916016 129.4043 23.916016 z M 242.50781 23.916016 C 241.3985 23.916016 240.30089 24.103228 239.21289 24.476562 L 239.21289 31.5 L 240.52344 31.5 L 240.52344 25.339844 C 241.19544 25.158502 241.85715 25.068359 242.50781 25.068359 C 242.81715 25.068359 243.09947 25.083234 243.35547 25.115234 C 243.62213 25.136576 243.92624 25.195016 244.26758 25.291016 L 244.50781 24.123047 C 244.13447 24.037806 243.79369 23.986261 243.48438 23.964844 C 243.17503 23.932844 242.84915 23.916016 242.50781 23.916016 z M 30.587891 24.076172 L 30.587891 28.251953 C 30.587891 28.753287 30.636422 29.212906 30.732422 29.628906 C 30.828429 30.044906 30.993857 30.407463 31.228516 30.716797 C 31.463181 31.01547 31.767291 31.249264 32.140625 31.419922 C 32.513959 31.579922 32.983497 31.660156 33.548828 31.660156 C 34.188828 31.660156 34.743556 31.616592 35.212891 31.53125 C 35.692891 31.445908 36.075281 31.367627 36.363281 31.292969 L 36.363281 24.076172 L 35.035156 24.076172 L 35.035156 30.347656 C 35.003156 30.358239 34.93975 30.375067 34.84375 30.396484 C 34.74775 30.407067 34.635812 30.421942 34.507812 30.443359 C 34.379823 30.454194 34.241139 30.46598 34.091797 30.476562 C 33.953121 30.487145 33.81444 30.492188 33.675781 30.492188 C 33.035781 30.492188 32.578115 30.300016 32.300781 29.916016 C 32.034115 29.532016 31.900391 28.882178 31.900391 27.964844 L 31.900391 24.076172 L 30.587891 24.076172 z M 46.363281 24.076172 L 46.363281 25.179688 L 48.507812 25.179688 L 48.507812 28.636719 C 48.507813 29.138053 48.544482 29.580844 48.619141 29.964844 C 48.693799 30.338178 48.822565 30.652203 49.003906 30.908203 C 49.195906 31.164203 49.446528 31.356375 49.755859 31.484375 C 50.065194 31.612375 50.454494 31.675781 50.923828 31.675781 C 51.126486 31.675781 51.318658 31.660906 51.5 31.628906 C 51.69199 31.596906 51.862377 31.558283 52.011719 31.515625 C 52.171711 31.472942 52.310393 31.43133 52.427734 31.388672 C 52.545076 31.33533 52.635219 31.291766 52.699219 31.259766 L 52.507812 30.140625 C 52.358478 30.225967 52.151431 30.306201 51.884766 30.380859 C 51.628766 30.455518 51.34449 30.492188 51.035156 30.492188 C 50.629815 30.492188 50.327658 30.368389 50.125 30.123047 C 49.922342 29.867047 49.820312 29.372719 49.820312 28.636719 L 49.820312 24.076172 L 46.363281 24.076172 z M 94.587891 24.076172 L 94.587891 28.251953 C 94.587891 28.753287 94.636422 29.212906 94.732422 29.628906 C 94.828432 30.044906 94.993857 30.407463 95.228516 30.716797 C 95.463181 31.01547 95.767291 31.249264 96.140625 31.419922 C 96.513957 31.579922 96.983494 31.660156 97.548828 31.660156 C 98.188828 31.660156 98.743556 31.616592 99.212891 31.53125 C 99.692891 31.445908 100.07528 31.367627 100.36328 31.292969 L 100.36328 24.076172 L 99.035156 24.076172 L 99.035156 30.347656 C 99.003156 30.358239 98.93975 30.375067 98.84375 30.396484 C 98.74775 30.407067 98.635812 30.421942 98.507812 30.443359 C 98.37982 30.454194 98.241139 30.46598 98.091797 30.476562 C 97.953124 30.487145 97.81444 30.492188 97.675781 30.492188 C 97.035781 30.492188 96.578115 30.300016 96.300781 29.916016 C 96.034115 29.532016 95.900391 28.882178 95.900391 27.964844 L 95.900391 24.076172 L 94.587891 24.076172 z M 110.36328 24.076172 L 110.36328 25.179688 L 112.50781 25.179688 L 112.50781 28.636719 C 112.50781 29.138053 112.54448 29.580844 112.61914 29.964844 C 112.6938 30.338178 112.82256 30.652203 113.00391 30.908203 C 113.19591 31.164203 113.44653 31.356375 113.75586 31.484375 C 114.06519 31.612375 114.4545 31.675781 114.92383 31.675781 C 115.12649 31.675781 115.31866 31.660906 115.5 31.628906 C 115.69199 31.596906 115.86238 31.558283 116.01172 31.515625 C 116.17171 31.472942 116.31039 31.43133 116.42773 31.388672 C 116.54508 31.33533 116.63522 31.291766 116.69922 31.259766 L 116.50781 30.140625 C 116.35848 30.225967 116.15143 30.306201 115.88477 30.380859 C 115.62877 30.455518 115.34449 30.492188 115.03516 30.492188 C 114.62981 30.492188 114.32766 30.368389 114.125 30.123047 C 113.92234 29.867047 113.82031 29.372719 113.82031 28.636719 L 113.82031 24.076172 L 110.36328 24.076172 z M 158.58789 24.076172 L 158.58789 28.251953 C 158.58789 28.753287 158.63642 29.212906 158.73242 29.628906 C 158.82843 30.044906 158.99386 30.407463 159.22852 30.716797 C 159.46318 31.01547 159.76729 31.249264 160.14062 31.419922 C 160.51396 31.579922 160.9835 31.660156 161.54883 31.660156 C 162.18883 31.660156 162.74356 31.616592 163.21289 31.53125 C 163.69289 31.445908 164.07528 31.367627 164.36328 31.292969 L 164.36328 24.076172 L 163.03516 24.076172 L 163.03516 30.347656 C 163.00316 30.358239 162.93975 30.375067 162.84375 30.396484 C 162.74775 30.407067 162.63581 30.421942 162.50781 30.443359 C 162.37982 30.454194 162.24114 30.46598 162.0918 30.476562 C 161.95312 30.487145 161.81444 30.492188 161.67578 30.492188 C 161.03578 30.492188 160.57811 30.300016 160.30078 29.916016 C 160.03411 29.532016 159.90039 28.882178 159.90039 27.964844 L 159.90039 24.076172 L 158.58789 24.076172 z M 174.58789 24.076172 L 174.58789 28.251953 C 174.58789 28.753287 174.63642 29.212906 174.73242 29.628906 C 174.82852 30.044906 174.99393 30.407463 175.22852 30.716797 C 175.46317 31.01547 175.76728 31.249264 176.14062 31.419922 C 176.51394 31.579922 176.98349 31.660156 177.54883 31.660156 C 178.18883 31.660156 178.74355 31.616592 179.21289 31.53125 C 179.69289 31.445908 180.07528 31.367627 180.36328 31.292969 L 180.36328 24.076172 L 179.03516 24.076172 L 179.03516 30.347656 C 179.00316 30.358239 178.93975 30.375067 178.84375 30.396484 C 178.74775 30.407067 178.63581 30.421942 178.50781 30.443359 C 178.37989 30.454194 178.24121 30.46598 178.0918 30.476562 C 177.95306 30.487145 177.81436 30.492188 177.67578 30.492188 C 177.03578 30.492188 176.57812 30.300016 176.30078 29.916016 C 176.03412 29.532016 175.90039 28.882178 175.90039 27.964844 L 175.90039 24.076172 L 174.58789 24.076172 z M 198.58789 24.076172 L 198.58789 28.251953 C 198.58789 28.753287 198.63642 29.212906 198.73242 29.628906 C 198.82852 30.044906 198.99393 30.407463 199.22852 30.716797 C 199.46317 31.01547 199.76728 31.249264 200.14062 31.419922 C 200.51394 31.579922 200.98349 31.660156 201.54883 31.660156 C 202.18883 31.660156 202.74355 31.616592 203.21289 31.53125 C 203.69289 31.445908 204.07528 31.367627 204.36328 31.292969 L 204.36328 24.076172 L 203.03516 24.076172 L 203.03516 30.347656 C 203.00316 30.358239 202.93975 30.375067 202.84375 30.396484 C 202.74775 30.407067 202.63581 30.421942 202.50781 30.443359 C 202.37989 30.454194 202.24121 30.46598 202.0918 30.476562 C 201.95306 30.487145 201.81436 30.492188 201.67578 30.492188 C 201.03578 30.492188 200.57812 30.300016 200.30078 29.916016 C 200.03412 29.532016 199.90039 28.882178 199.90039 27.964844 L 199.90039 24.076172 L 198.58789 24.076172 z M 233.62891 25.019531 C 234.17291 25.019531 234.60879 25.206744 234.93945 25.580078 C 235.27014 25.942744 235.43555 26.439025 235.43555 27.068359 L 231.5 27.068359 C 231.532 26.812367 231.6024 26.561748 231.70898 26.316406 C 231.81557 26.071072 231.95921 25.852156 232.14062 25.660156 C 232.32187 25.468166 232.53388 25.312654 232.7793 25.195312 C 233.0353 25.077971 233.31956 25.019531 233.62891 25.019531 z M 57.484375 25.068359 C 58.103041 25.068359 58.594365 25.314022 58.957031 25.804688 C 59.3197 26.284687 59.5 26.944441 59.5 27.787109 C 59.5 28.619109 59.3197 29.280819 58.957031 29.771484 C 58.594365 30.251484 58.103041 30.492188 57.484375 30.492188 C 56.876375 30.492188 56.390012 30.251484 56.027344 29.771484 C 55.675344 29.280819 55.5 28.619109 55.5 27.787109 C 55.5 26.944441 55.675344 26.284687 56.027344 25.804688 C 56.390012 25.314022 56.876375 25.068359 57.484375 25.068359 z M 105.48438 25.068359 C 105.79371 25.068359 106.09286 25.131766 106.38086 25.259766 C 106.66885 25.377107 106.88581 25.505873 107.03516 25.644531 L 107.03516 30.347656 C 106.92848 30.379656 106.7581 30.411359 106.52344 30.443359 C 106.29944 30.475359 106.02207 30.492188 105.69141 30.492188 C 105.04074 30.492187 104.51275 30.256444 104.10742 29.787109 C 103.70209 29.317778 103.5 28.651109 103.5 27.787109 C 103.5 27.403109 103.53667 27.047465 103.61133 26.716797 C 103.68599 26.375455 103.80484 26.086221 103.96484 25.851562 C 104.12483 25.606221 104.32692 25.414049 104.57227 25.275391 C 104.82827 25.136732 105.13238 25.068359 105.48438 25.068359 z M 169.5957 25.068359 C 169.9797 25.068359 170.28381 25.090154 170.50781 25.132812 C 170.73181 25.164812 170.90716 25.201482 171.03516 25.244141 L 171.03516 29.580078 C 170.85384 29.708078 170.61509 29.820016 170.31641 29.916016 C 170.02841 30.012016 169.71933 30.060547 169.38867 30.060547 C 169.13267 30.060547 168.89197 30.016982 168.66797 29.931641 C 168.44404 29.835641 168.24196 29.692 168.06055 29.5 C 167.88981 29.297334 167.75111 29.046713 167.64453 28.748047 C 167.54853 28.438713 167.5 28.071197 167.5 27.644531 C 167.5 26.865863 167.67534 26.240816 168.02734 25.771484 C 168.39 25.30215 168.91304 25.068359 169.5957 25.068359 z M 249.48438 25.068359 C 250.10306 25.068359 250.59242 25.314022 250.95508 25.804688 C 251.31774 26.284687 251.5 26.944441 251.5 27.787109 C 251.5 28.619109 251.31774 29.280819 250.95508 29.771484 C 250.59242 30.251484 250.10306 30.492188 249.48438 30.492188 C 248.8764 30.492188 248.39003 30.251484 248.02734 29.771484 C 247.67534 29.280819 247.5 28.619109 247.5 27.787109 C 247.5 26.944441 247.67534 26.284687 248.02734 25.804688 C 248.39003 25.314022 248.8764 25.068359 249.48438 25.068359 z M 264.86133 25.275391 L 266.62109 25.275391 L 266.125 27.820312 L 264.36523 27.820312 L 264.86133 25.275391 z M 281.53125 25.308594 C 281.25383 25.308594 281.02996 25.415565 280.85938 25.628906 C 280.68879 25.842238 280.60352 26.085947 280.60352 26.363281 C 280.60352 26.640623 280.68879 26.881326 280.85938 27.083984 C 281.03006 27.286643 281.25393 27.388672 281.53125 27.388672 C 281.79793 27.388672 282.01188 27.286643 282.17188 27.083984 C 282.34246 26.881319 282.42773 26.640615 282.42773 26.363281 C 282.42773 26.085957 282.34246 25.842248 282.17188 25.628906 C 282.01188 25.415565 281.79793 25.308594 281.53125 25.308594 z M 289.53125 25.308594 C 289.25383 25.308594 289.02996 25.415565 288.85938 25.628906 C 288.68879 25.842238 288.60352 26.085947 288.60352 26.363281 C 288.60352 26.640623 288.68879 26.881326 288.85938 27.083984 C 289.03003 27.286643 289.25391 27.388672 289.53125 27.388672 C 289.79791 27.388672 290.01188 27.286643 290.17188 27.083984 C 290.34246 26.881319 290.42773 26.640615 290.42773 26.363281 C 290.42773 26.085957 290.34246 25.842248 290.17188 25.628906 C 290.01188 25.415565 289.79791 25.308594 289.53125 25.308594 z M 305.51562 26.507812 L 305.51758 26.507812 C 306.14689 26.507812 306.60458 26.678197 306.89258 27.019531 C 307.19126 27.360863 307.3418 27.857144 307.3418 28.507812 C 307.3418 28.731812 307.30814 28.972516 307.24414 29.228516 C 307.19072 29.473857 307.09561 29.697732 306.95703 29.900391 C 306.81845 30.103064 306.6431 30.273451 306.42969 30.412109 C 306.21635 30.540109 305.94891 30.603516 305.62891 30.603516 C 305.24498 30.603516 304.93096 30.523281 304.68555 30.363281 C 304.44031 30.192615 304.24317 29.96874 304.09375 29.691406 C 303.95517 29.403406 303.85306 29.079463 303.78906 28.716797 C 303.73565 28.343463 303.70898 27.94725 303.70898 27.53125 L 303.70898 27.212891 C 303.70898 27.106207 303.71453 26.999236 303.72461 26.892578 C 304.01261 26.764578 304.29492 26.667516 304.57227 26.603516 C 304.86027 26.539516 305.17428 26.507812 305.51562 26.507812 z M 63.740234 26.8125 L 63.740234 28.060547 L 67.259766 28.060547 L 67.259766 26.8125 L 63.740234 26.8125 z M 89.740234 28.060547 C 90.00691 28.060547 90.257529 28.075422 90.492188 28.107422 C 90.737529 28.139422 90.944576 28.182986 91.115234 28.236328 L 91.115234 30.443359 C 90.944566 30.475284 90.727603 30.50202 90.460938 30.523438 C 90.204938 30.544855 89.910744 30.556641 89.580078 30.556641 C 89.025412 30.556641 88.582621 30.464545 88.251953 30.283203 C 87.931953 30.091203 87.771484 29.755391 87.771484 29.275391 C 87.771484 29.040732 87.829924 28.84856 87.947266 28.699219 C 88.06459 28.539219 88.215143 28.412406 88.396484 28.316406 C 88.577826 28.220406 88.784873 28.155047 89.019531 28.123047 C 89.254189 28.080389 89.494893 28.060547 89.740234 28.060547 z M 121.74023 28.060547 C 122.00691 28.060547 122.25753 28.075422 122.49219 28.107422 C 122.73753 28.139422 122.94458 28.182986 123.11523 28.236328 L 123.11523 30.443359 C 122.94457 30.475284 122.72761 30.50202 122.46094 30.523438 C 122.20494 30.544855 121.91074 30.556641 121.58008 30.556641 C 121.02541 30.556641 120.58262 30.464545 120.25195 30.283203 C 119.93195 30.091203 119.77148 29.755391 119.77148 29.275391 C 119.77148 29.040732 119.82992 28.84856 119.94727 28.699219 C 120.06459 28.539219 120.21514 28.412406 120.39648 28.316406 C 120.57783 28.220406 120.78487 28.155047 121.01953 28.123047 C 121.25419 28.080389 121.49489 28.060547 121.74023 28.060547 z M 145.91602 29.275391 C 145.60669 29.275391 145.32933 29.387328 145.08398 29.611328 C 144.84933 29.82466 144.73242 30.145597 144.73242 30.572266 C 144.73242 30.796273 144.80769 31.025107 144.95703 31.259766 C 145.11703 31.483766 145.36765 31.612531 145.70898 31.644531 C 145.63433 31.857855 145.5323 32.023283 145.4043 32.140625 C 145.2763 32.268625 145.13266 32.368701 144.97266 32.443359 C 144.81266 32.528701 144.63536 32.59406 144.44336 32.636719 C 144.26203 32.679402 144.07677 32.721014 143.88477 32.763672 L 144.10742 33.804688 C 144.61942 33.740695 145.06222 33.602014 145.43555 33.388672 C 145.80887 33.186006 146.11794 32.935385 146.36328 32.636719 C 146.61927 32.348719 146.80649 32.03274 146.92383 31.691406 C 147.05183 31.36074 147.11523 31.041756 147.11523 30.732422 C 147.11523 30.327088 147.01516 29.984363 146.8125 29.707031 C 146.60983 29.419031 146.31068 29.275391 145.91602 29.275391 z M 217.91602 29.275391 C 217.60675 29.275391 217.3294 29.387328 217.08398 29.611328 C 216.8494 29.82466 216.73242 30.145597 216.73242 30.572266 C 216.73242 30.796273 216.80566 31.025107 216.95508 31.259766 C 217.11508 31.483766 217.36571 31.612531 217.70703 31.644531 C 217.63245 31.857855 217.5323 32.023283 217.4043 32.140625 C 217.2763 32.268625 217.13266 32.368701 216.97266 32.443359 C 216.81266 32.528701 216.63536 32.59406 216.44336 32.636719 C 216.26202 32.679402 216.07677 32.721014 215.88477 32.763672 L 215.88281 32.763672 L 216.10742 33.804688 C 216.61942 33.740695 217.06221 33.602014 217.43555 33.388672 C 217.80879 33.186006 218.11786 32.935385 218.36328 32.636719 C 218.61921 32.348719 218.80641 32.03274 218.92383 31.691406 C 219.05183 31.36074 219.11523 31.041756 219.11523 30.732422 C 219.11523 30.327088 219.01508 29.984363 218.8125 29.707031 C 218.60984 29.419031 218.31067 29.275391 217.91602 29.275391 z M 257.91602 29.275391 C 257.60677 29.275391 257.3294 29.387328 257.08398 29.611328 C 256.8494 29.82466 256.73242 30.145597 256.73242 30.572266 C 256.73242 30.796273 256.80566 31.025107 256.95508 31.259766 C 257.11508 31.483766 257.36569 31.612531 257.70703 31.644531 C 257.63245 31.857855 257.5323 32.023283 257.4043 32.140625 C 257.2763 32.268625 257.13266 32.368701 256.97266 32.443359 C 256.81266 32.528701 256.63536 32.59406 256.44336 32.636719 C 256.26202 32.679402 256.07677 32.721014 255.88477 32.763672 L 255.88281 32.763672 L 256.10742 33.804688 C 256.61942 33.740695 257.06223 33.602014 257.43555 33.388672 C 257.80881 33.186006 258.11786 32.935385 258.36328 32.636719 C 258.61918 32.348719 258.80641 32.03274 258.92383 31.691406 C 259.05183 31.36074 259.11523 31.041756 259.11523 30.732422 C 259.11523 30.327088 259.01508 29.984363 258.8125 29.707031 C 258.60984 29.419031 258.3107 29.275391 257.91602 29.275391 z "
       transform="matrix(0.26458336,0,0,0.26458334,56.693506,64.774382)"
       id="path3350" />
  </g>
</svg>
